<svg xmlns="http://www.w3.org/2000/svg" xmlns:xlink="http://www.w3.org/1999/xlink" xmlns:lucid="lucid" width="1516.75" height="1097.72"><g transform="translate(0 0)" lucid:page-tab-id="18_45"><path d="M0 0h1516.75v1097.72H0z" fill="#fff"/><path d="M373.94 32c0-6.63 5.37-12 12-12h658.78c6.63 0 12 5.37 12 12v27.6c0 6.63-5.37 12-12 12H385.94c-6.63 0-12-5.37-12-12z" stroke="#000" stroke-opacity="0" stroke-width="2" fill="#fff" fill-opacity="0"/><use xlink:href="#a" transform="matrix(1,0,0,1,378.94235119865607,25) translate(172.7222222222222 26.583333333333336)"/><use xlink:href="#b" transform="matrix(1,0,0,1,378.94235119865607,25) translate(258.4259259259259 26.583333333333336)"/><use xlink:href="#c" transform="matrix(1,0,0,1,378.94235119865607,25) translate(381.0925925925926 26.583333333333336)"/><path d="M553.04 65.48h328.64M553.07 65.48h-1.03M881.66 65.48h1.02" stroke="#b2b2b2" stroke-width="2" fill="none"/><path d="M865.08 698.95l3.18 1.04 1.96 2.67.28 1.74v18.42h-1V704.5l-.23-1.43-1.63-2.23-2.72-.9H796.3v-1zm-139.4-1.85l2.23 1.62 1.43.23h47.13v1h-47.2l-1.75-.28-2.67-1.96-1.04-3.17v-15.58h1v15.42z" fill="#666"/><path d="M724.8 678.97h-1v-.6l.5.08.5-.07zM870 737.6l-4.64-14.28h9.28z" fill="#666"/><path d="M870 739.2l-5.32-16.38h10.64zm-3.95-15.38l3.95 12.15 3.95-12.15z" fill="#666"/><use xlink:href="#d" transform="matrix(1,0,0,1,776.4569694773711,690.119464093208) translate(0 12.444444444444446)"/><path d="M306.07 447.27v34.5c0 2.76 2.23 5 5 5H478.8c2.75 0 5-2.24 5-5v-60.5c0-2.76 2.23-5 5-5h18.6" stroke="#666" fill="none"/><path d="M306.05 446.77l.52-.02v.54h-1v-.57z" fill="#666"/><path d="M522.17 416.27l-14.26 4.64v-9.26z" stroke="#666" fill="#666"/><path d="M228.03 145c0-2.76 2.24-5 5-5H379.1c2.76 0 5 2.24 5 5v82.17c0 2.77-2.24 5-5 5H233.03c-2.76 0-5-2.23-5-5z" stroke="#ff8839" stroke-width="2" fill="#ff8839"/><path d="M237.46 182.92h34.13V171.6s-3.32-5.67-10.04-7.48h-13.12c-6.27 1.93-11.1 8.3-11.1 8.3l.12 10.5z" stroke="#000" stroke-width="2" fill="#f4f6f7"/><path d="M237.46 182.92h34.13V171.6s-3.32-5.67-10.04-7.48h-13.12c-6.27 1.93-11.1 8.3-11.1 8.3l.12 10.5zM244.9 176.76v5.56M264.6 176.88v5.8" stroke="#000" stroke-width="2" fill="none"/><path d="M262.74 156.5c0-4.32-3.45-7.82-7.7-7.82-4.24 0-7.67 3.5-7.67 7.83 0 4.34 3.43 7.86 7.68 7.86 4.24 0 7.7-3.52 7.7-7.85z" stroke="#000" stroke-width="2" fill="#020202"/><path d="M262.74 156.5c0-4.32-3.45-7.82-7.7-7.82-4.24 0-7.67 3.5-7.67 7.83 0 4.34 3.43 7.86 7.68 7.86 4.24 0 7.7-3.52 7.7-7.85z" stroke="#000" stroke-width="2" fill="none"/><path d="M248.02 158.2s4-3.5 7.62-2.62c3.63.9 6.57-.98 6.57-.98.34 2.43.06 5.4-2.07 8.07 0 0 1.54 1.1 1.54 2.17 0 1.1.18 2.7-1.42 4.33-1.6 1.63-7.8 1.8-9.56 0-1.8-1.8-1.8-2.64-1.8-3.84 0-1.2.84-1.8 1.8-2.78-1.55-.85-3.56-3.44-2.68-4.35z" stroke="#000" stroke-width="2" fill="#f0eff0"/><path d="M248.02 158.2s4-3.5 7.62-2.62c3.63.9 6.57-.98 6.57-.98.34 2.43.06 5.4-2.07 8.07 0 0 1.54 1.1 1.54 2.17 0 1.1.18 2.7-1.42 4.33-1.6 1.63-7.8 1.8-9.56 0-1.8-1.8-1.8-2.64-1.8-3.84 0-1.2.84-1.8 1.8-2.78-1.55-.85-3.56-3.44-2.68-4.35z" stroke="#000" stroke-width="2" fill="none"/><use xlink:href="#e" transform="matrix(1,0,0,1,228.03289605184614,139.99999999999997) translate(50.72475308641976 38.894444444444446)"/><use xlink:href="#f" transform="matrix(1,0,0,1,228.03289605184614,139.99999999999997) translate(101.625987654321 38.894444444444446)"/><use xlink:href="#g" transform="matrix(1,0,0,1,228.03289605184614,139.99999999999997) translate(114.58895061728396 38.894444444444446)"/><use xlink:href="#h" transform="matrix(1,0,0,1,228.03289605184614,139.99999999999997) translate(17.863024691358028 57.56111111111112)"/><use xlink:href="#i" transform="matrix(1,0,0,1,228.03289605184614,139.99999999999997) translate(71.40067901234568 57.56111111111112)"/><path d="M644.3 375.2c0-2.78 2.23-5 5-5h146.06c2.76 0 5 2.22 5 5v82.16c0 2.76-2.24 5-5 5H649.3c-2.77 0-5-2.24-5-5z" stroke="#ff9e56" stroke-width="2" fill="#ff9e56"/><path d="M653.7 413.1h34.15v-11.33s-3.3-5.66-10.04-7.47h-13.1c-6.27 1.94-11.1 8.32-11.1 8.32l.1 10.5z" stroke="#000" stroke-width="2" fill="#f4f6f7"/><path d="M653.7 413.1h34.15v-11.33s-3.3-5.66-10.04-7.47h-13.1c-6.27 1.94-11.1 8.32-11.1 8.32l.1 10.5zM661.15 406.95v5.55M680.87 407.07v5.8" stroke="#000" stroke-width="2" fill="none"/><path d="M679 386.7c0-4.34-3.46-7.84-7.7-7.84s-7.67 3.5-7.67 7.83c0 4.32 3.43 7.85 7.67 7.85s7.7-3.53 7.7-7.86z" stroke="#000" stroke-width="2" fill="#020202"/><path d="M679 386.7c0-4.34-3.46-7.84-7.7-7.84s-7.67 3.5-7.67 7.83c0 4.32 3.43 7.85 7.67 7.85s7.7-3.53 7.7-7.86z" stroke="#000" stroke-width="2" fill="none"/><path d="M664.28 388.38s4-3.5 7.62-2.6c3.62.9 6.56-1 6.56-1 .34 2.44.06 5.42-2.07 8.07 0 0 1.53 1.1 1.53 2.18 0 1.1.18 2.7-1.42 4.33-1.6 1.63-7.8 1.8-9.55 0-1.78-1.8-1.78-2.64-1.78-3.85 0-1.2.83-1.8 1.78-2.77-1.54-.84-3.55-3.44-2.67-4.35z" stroke="#000" stroke-width="2" fill="#f0eff0"/><path d="M664.28 388.38s4-3.5 7.62-2.6c3.62.9 6.56-1 6.56-1 .34 2.44.06 5.42-2.07 8.07 0 0 1.53 1.1 1.53 2.18 0 1.1.18 2.7-1.42 4.33-1.6 1.63-7.8 1.8-9.55 0-1.78-1.8-1.78-2.64-1.78-3.85 0-1.2.83-1.8 1.78-2.77-1.54-.84-3.55-3.44-2.67-4.35z" stroke="#000" stroke-width="2" fill="none"/><use xlink:href="#j" transform="matrix(1,0,0,1,644.2917818807473,370.1850007817345) translate(62.348209876543216 30.175694444444446)"/><use xlink:href="#k" transform="matrix(1,0,0,1,644.2917818807473,370.1850007817345) translate(51.113641975308646 48.84236111111112)"/><use xlink:href="#l" transform="matrix(1,0,0,1,644.2917818807473,370.1850007817345) translate(88.27413580246913 48.84236111111112)"/><use xlink:href="#g" transform="matrix(1,0,0,1,644.2917818807473,370.1850007817345) translate(114.20006172839506 48.84236111111112)"/><use xlink:href="#m" transform="matrix(1,0,0,1,644.2917818807473,370.1850007817345) translate(41.793209876543216 67.50902777777779)"/><use xlink:href="#i" transform="matrix(1,0,0,1,644.2917818807473,370.1850007817345) translate(63.39814814814815 67.50902777777779)"/><path d="M585.3 416.27h41.6" stroke="#666" fill="none"/><path d="M585.3 416.77h-.55l.04-.5-.03-.5h.53z" fill="#666"/><path d="M641.67 416.27l-14.26 4.64v-9.26z" stroke="#666" fill="#666"/><path d="M120 1069.32H85c-2.76 0-5-2.24-5-5V919.7h40z" fill="#6e757d"/><path d="M120 1069.32h1315c2.76 0 5-2.24 5-5V919.7H120z" fill="none"/><path d="M120 919.7H80V520h40z" fill="#6e757d"/><path d="M120 919.7h1320V520H120z" fill="none"/><path d="M80 919.7h1360" stroke="#b2b2b2" stroke-width="2" fill="none"/><path d="M120 520H80V340h40z" fill="#6e757d"/><path d="M120 520h1320V340H120z" fill="none"/><path d="M80 520h1360" stroke="#b2b2b2" stroke-width="2" fill="none"/><path d="M80 340V125c0-2.76 2.24-5 5-5h35v220z" fill="#6e757d"/><path d="M120 120h1315c2.76 0 5 2.24 5 5v215H120z" fill="none"/><path d="M80 340h1360M120 1069.32V120M120 1069.32H85c-2.76 0-5-2.24-5-5V919.7m0 0V520m0 0V340m0 0V125c0-2.76 2.24-5 5-5h35m0 0h1315c2.76 0 5 2.24 5 5v215m0 579.7V520m0 0V340M120 1069.32h1315c2.76 0 5-2.24 5-5V919.7" stroke="#b2b2b2" stroke-width="2" fill="none"/><use xlink:href="#n" transform="matrix(6.123233995736766e-17,-1,1,6.123233995736766e-17,80.00000000000006,339.9999999999999) translate(68.57407407407408 23.555555555555557)"/><use xlink:href="#o" transform="matrix(6.123233995736766e-17,-1,1,6.123233995736766e-17,80.00000000000006,519.9999999999999) translate(50.59259259259259 23.555555555555557)"/><path d="M584.3 416.27c0 16.57-13.44 30-30 30-16.58 0-30-13.43-30-30s13.42-30 30-30c16.56 0 30 13.43 30 30z" stroke="#666" fill="#ffeadb"/><path d="M581.3 416.27c0 14.9-12.1 27-27 27-14.92 0-27-12.1-27-27s12.08-27 27-27c14.9 0 27 12.1 27 27z" stroke="#666" fill="#ffeadb"/><path d="M574.3 416.27c0 11.05-8.96 20-20 20-11.05 0-20-8.95-20-20 0-11.04 8.95-20 20-20 11.04 0 20 8.96 20 20zm0 0h-4m1.3 10l-3.45-2m-3.86 9.32l-2-3.47m-8 6.14v-4m-10 1.32l2-3.47m-9.33-3.86l3.47-2m-6.15-8h4m-1.33-10l3.47 2m3.85-9.32l2 3.47m8-6.15v4m10-1.32l-2 3.47m9.3 3.85l-3.45 2m-13.86 8v-12m0 12h7" stroke="#666" fill="#fff"/><path d="M1380 969.7c0 16.57-13.43 30-30 30s-30-13.43-30-30c0-16.56 13.43-30 30-30s30 13.44 30 30z" stroke="#666" stroke-width="5" fill="#d2d3d5"/><path d="M1371.25 969.7c0 11.74-9.5 21.25-21.25 21.25-11.74 0-21.25-9.5-21.25-21.25 0-11.73 9.5-21.25 21.25-21.25 11.74 0 21.25 9.52 21.25 21.25z" fill="#666"/><path d="M1380 849.7c0 16.57-13.43 30-30 30s-30-13.43-30-30c0-16.56 13.43-30 30-30s30 13.44 30 30z" stroke="#666" stroke-width="5" fill="#d2d3d5"/><path d="M1371.25 849.7c0 11.74-9.5 21.25-21.25 21.25-11.74 0-21.25-9.5-21.25-21.25 0-11.73 9.5-21.25 21.25-21.25 11.74 0 21.25 9.52 21.25 21.25z" fill="#666"/><path d="M720.3 562.7c2.2-1.65 5.78-1.65 8 0l72 54c2.2 1.66 2.2 4.35 0 6l-72 54c-2.22 1.66-5.8 1.66-8 0l-72-54c-2.22-1.65-2.22-4.34 0-6z" stroke="#666" fill="#fff"/><use xlink:href="#p" transform="matrix(1,0,0,1,649.2917818807472,564.7048598443141) translate(6.793209876543202 39.44444444444444)"/><use xlink:href="#q" transform="matrix(1,0,0,1,649.2917818807472,564.7048598443141) translate(72.3858024691358 39.44444444444444)"/><use xlink:href="#r" transform="matrix(1,0,0,1,649.2917818807472,564.7048598443141) translate(130.24382716049382 39.44444444444444)"/><use xlink:href="#s" transform="matrix(1,0,0,1,649.2917818807472,564.7048598443141) translate(3.790123456790127 58.111111111111114)"/><use xlink:href="#t" transform="matrix(1,0,0,1,649.2917818807472,564.7048598443141) translate(64.24074074074075 58.111111111111114)"/><use xlink:href="#u" transform="matrix(1,0,0,1,649.2917818807472,564.7048598443141) translate(82.34567901234568 58.111111111111114)"/><use xlink:href="#v" transform="matrix(1,0,0,1,649.2917818807472,564.7048598443141) translate(124.60493827160494 58.111111111111114)"/><use xlink:href="#w" transform="matrix(1,0,0,1,649.2917818807472,564.7048598443141) translate(49.09567901234568 76.77777777777779)"/><path d="M666 699.95h-46.63l-2.72.9-1.63 2.22-.23 1.42v18.32h-1v-18.4l.27-1.75 1.96-2.68 3.18-1.05H666zm58.8-5.42l-1.05 3.18-2.68 1.97-1.74.28h-27.97v-1h27.9l1.4-.23 2.24-1.62.9-2.73v-15.42h1z" fill="#666"/><path d="M724.8 678.97h-1v-.6l.5.08.5-.07zM614.3 737.6l-4.64-14.28h9.27z" fill="#666"/><path d="M614.3 739.2l-5.33-16.38h10.65zm-3.96-15.38l3.95 12.15 3.94-12.15z" fill="#666"/><use xlink:href="#x" transform="matrix(1,0,0,1,665.9918759596844,690.119464093208) translate(0 12.444444444444446)"/><path d="M336.07 416.27c0 16.57-13.44 30-30 30-16.57 0-30-13.43-30-30s13.43-30 30-30c16.56 0 30 13.43 30 30z" stroke="#666" fill="#ffeadb"/><path d="M333.07 416.27c0 14.9-12.1 27-27 27-14.92 0-27-12.1-27-27s12.08-27 27-27c14.9 0 27 12.1 27 27z" stroke="#666" fill="#ffeadb"/><path d="M286.07 405.02h40v22.5h-40z" stroke="#666" fill="#fff"/><path d="M286.07 405.02l20 11.25 20-11.25M724.3 463.86v80.7" stroke="#666" fill="none"/><path d="M724.8 463.87h-1v-.5h1z" fill="#666"/><path d="M724.3 559.34l-4.64-14.27h9.27z" stroke="#666" fill="#666"/><path d="M900 769.7c0 16.57-13.43 30-30 30s-30-13.43-30-30c0-16.56 13.43-30 30-30s30 13.44 30 30z" stroke="#666" fill="#ffeadb"/><path d="M897 769.7c0 14.92-12.1 27-27 27s-27-12.08-27-27c0-14.9 12.1-27 27-27s27 12.1 27 27z" stroke="#666" fill="#ffeadb"/><path d="M850 758.45h40v22.5h-40z" stroke="#666" fill="#fff"/><path d="M850 758.45l20 11.25 20-11.25M870 800.7v44c0 2.77 2.24 5 5 5h428.62" stroke="#666" fill="none"/><path d="M870 800.2h.5v.52h-1v-.56z" fill="#666"/><path d="M1318.38 849.7l-14.26 4.64v-9.27z" stroke="#666" fill="#666"/><g><use xlink:href="#y" transform="matrix(1,0,0,1,892.8182787342798,827.0381931776474) translate(0 12.444444444444446)"/><use xlink:href="#z" transform="matrix(1,0,0,1,892.8182787342798,827.0381931776474) translate(23.333333333333336 12.444444444444446)"/><use xlink:href="#A" transform="matrix(1,0,0,1,892.8182787342798,827.0381931776474) translate(82.87654320987654 12.444444444444446)"/><use xlink:href="#B" transform="matrix(1,0,0,1,892.8182787342798,827.0381931776474) translate(116.49382716049382 12.444444444444446)"/><use xlink:href="#C" transform="matrix(1,0,0,1,892.8182787342798,827.0381931776474) translate(137.7962962962963 12.444444444444446)"/><use xlink:href="#D" transform="matrix(1,0,0,1,892.8182787342798,827.0381931776474) translate(179.14814814814815 12.444444444444446)"/><use xlink:href="#E" transform="matrix(1,0,0,1,892.8182787342798,827.0381931776474) translate(212.85185185185185 12.444444444444446)"/><use xlink:href="#F" transform="matrix(1,0,0,1,892.8182787342798,827.0381931776474) translate(246.55555555555554 12.444444444444446)"/><use xlink:href="#G" transform="matrix(1,0,0,1,892.8182787342798,827.0381931776474) translate(263.8395061728395 12.444444444444446)"/><use xlink:href="#H" transform="matrix(1,0,0,1,892.8182787342798,827.0381931776474) translate(289.7654320987654 12.444444444444446)"/></g><path d="M644.3 769.7c0 16.57-13.44 30-30 30-16.58 0-30-13.43-30-30 0-16.56 13.42-30 30-30 16.56 0 30 13.44 30 30z" stroke="#666" fill="#ffeadb"/><path d="M641.3 769.7c0 14.92-12.1 27-27 27-14.92 0-27-12.08-27-27 0-14.9 12.08-27 27-27 14.9 0 27 12.1 27 27z" stroke="#666" fill="#ffeadb"/><path d="M594.3 758.45h40v22.5h-40z" stroke="#666" fill="#fff"/><path d="M594.3 758.45l20 11.25 20-11.25" stroke="#666" fill="none"/><path d="M614.8 964.63l.88 2.72 2.23 1.63 1.43.22H788.3v1H619.24l-1.74-.28-2.67-1.95-1.04-3.2V800.72h1zm688.82 4.57v1h-148.7v-1zM614.28 800.2h.5v.52h-1v-.56zM1318.38 969.7l-14.26 4.64v-9.27z" fill="#666"/><path d="M1320 969.7l-16.38 5.33v-10.65zm-15.38 3.95l12.14-3.95-12.14-3.94z" fill="#666"/><g><use xlink:href="#y" transform="matrix(1,0,0,1,788.2869443296837,960.3715265109807) translate(0 12.444444444444446)"/><use xlink:href="#I" transform="matrix(1,0,0,1,788.2869443296837,960.3715265109807) translate(23.333333333333336 12.444444444444446)"/><use xlink:href="#A" transform="matrix(1,0,0,1,788.2869443296837,960.3715265109807) translate(92.42592592592592 12.444444444444446)"/><use xlink:href="#B" transform="matrix(1,0,0,1,788.2869443296837,960.3715265109807) translate(126.04320987654322 12.444444444444446)"/><use xlink:href="#C" transform="matrix(1,0,0,1,788.2869443296837,960.3715265109807) translate(147.34567901234567 12.444444444444446)"/><use xlink:href="#D" transform="matrix(1,0,0,1,788.2869443296837,960.3715265109807) translate(188.69753086419752 12.444444444444446)"/><use xlink:href="#E" transform="matrix(1,0,0,1,788.2869443296837,960.3715265109807) translate(222.4012345679012 12.444444444444446)"/><use xlink:href="#F" transform="matrix(1,0,0,1,788.2869443296837,960.3715265109807) translate(256.1049382716049 12.444444444444446)"/><use xlink:href="#G" transform="matrix(1,0,0,1,788.2869443296837,960.3715265109807) translate(273.38888888888886 12.444444444444446)"/><use xlink:href="#H" transform="matrix(1,0,0,1,788.2869443296837,960.3715265109807) translate(299.3148148148148 12.444444444444446)"/></g><path d="M385.6 186.1h197.02" stroke="#666" fill="none"/><path d="M385.6 186.6h-.5v-1h.5z" fill="#666"/><path d="M597.38 186.1l-14.26 4.62v-9.27z" stroke="#666" fill="#666"/><path d="M600 145c0-2.76 2.24-5 5-5h204.1c2.77 0 5 2.24 5 5v96.1c0 2.75-2.23 5-5 5H605c-2.76 0-5-2.25-5-5z" stroke="#ff9e56" stroke-width="2" fill="#ff9e56"/><path d="M628.24 154.5l3.16-3.14 2.93 2.94-3.15 3.13 1.17 2.78h4.44v4.16h-4.45l-1.17 2.8 3.15 3.14-2.93 2.94-3.16-3.14-2.8 1.15v4.46h-4.14v-4.45l-2.8-1.15-3.14 3.14-2.94-2.94 3.14-3.13-1.15-2.78h-4.43v-4.16h4.44l1.16-2.8-3.14-3.14 2.94-2.94 3.14 3.14 2.8-1.15v-4.46h4.15v4.45l2.8 1.15z" stroke="#000" stroke-width="2" fill="#fff"/><path d="M628.24 154.5l3.16-3.14 2.93 2.94-3.15 3.13 1.17 2.78h4.44v4.16h-4.45l-1.17 2.8 3.15 3.14-2.93 2.94-3.16-3.14-2.8 1.15v4.46h-4.14v-4.45l-2.8-1.15-3.14 3.14-2.94-2.94 3.14-3.13-1.15-2.78h-4.43v-4.16h4.44l1.16-2.8-3.14-3.14 2.94-2.94 3.14 3.14 2.8-1.15v-4.46h4.15v4.45l2.8 1.15z" stroke="#000" stroke-width="2" fill="#fff"/><path d="M627.93 162.3c0-2.53-2.03-4.56-4.55-4.56s-4.55 2.03-4.55 4.55c0 2.5 2.03 4.56 4.55 4.56s4.55-2.05 4.55-4.57z" stroke="#000" stroke-width="2" fill="#fff"/><path d="M635.6 161.85l3.15-3.14 2.94 2.95-3.15 3.13 1.15 2.8h4.44v4.16h-4.44l-1.15 2.78 3.14 3.16-2.95 2.93-3.14-3.15-2.8 1.18v4.43h-4.14v-4.43l-2.8-1.18-3.15 3.16-2.9-2.92 3.14-3.16-1.18-2.78h-4.43v-4.15h4.43l1.18-2.8-3.16-3.15 2.93-2.94 3.17 3.15 2.8-1.15v-4.44h4.14v4.44l2.8 1.15z" stroke="#000" stroke-width="2" fill="#fff"/><path d="M635.6 161.85l3.15-3.14 2.94 2.95-3.15 3.13 1.15 2.8h4.44v4.16h-4.44l-1.15 2.78 3.14 3.16-2.95 2.93-3.14-3.15-2.8 1.18v4.43h-4.14v-4.43l-2.8-1.18-3.15 3.16-2.9-2.92 3.14-3.16-1.18-2.78h-4.43v-4.15h4.43l1.18-2.8-3.16-3.15 2.93-2.94 3.17 3.15 2.8-1.15v-4.44h4.14v4.44l2.8 1.15z" stroke="#000" stroke-width="2" fill="#fff"/><path d="M635.3 169.66c0-2.52-2.05-4.57-4.57-4.57-2.52 0-4.55 2.05-4.55 4.56 0 2.52 2.03 4.55 4.55 4.55s4.58-2.02 4.58-4.54z" stroke="#000" stroke-width="2" fill="#fff"/><g><use xlink:href="#J" transform="matrix(1,0,0,1,599.9999999999998,139.99999999999997) translate(67.15067901234568 29.019444444444446)"/><use xlink:href="#K" transform="matrix(1,0,0,1,599.9999999999998,139.99999999999997) translate(90.48401234567902 29.019444444444446)"/><use xlink:href="#L" transform="matrix(1,0,0,1,599.9999999999998,139.99999999999997) translate(156.0766049382716 29.019444444444446)"/><use xlink:href="#M" transform="matrix(1,0,0,1,599.9999999999998,139.99999999999997) translate(81.02104938271606 47.68611111111112)"/><use xlink:href="#N" transform="matrix(1,0,0,1,599.9999999999998,139.99999999999997) translate(27.19444444444444 66.35277777777779)"/><use xlink:href="#O" transform="matrix(1,0,0,1,599.9999999999998,139.99999999999997) translate(93.69444444444444 66.35277777777779)"/><use xlink:href="#l" transform="matrix(1,0,0,1,599.9999999999998,139.99999999999997) translate(110.97839506172839 66.35277777777779)"/><use xlink:href="#P" transform="matrix(1,0,0,1,599.9999999999998,139.99999999999997) translate(136.90432098765433 66.35277777777779)"/><use xlink:href="#h" transform="matrix(1,0,0,1,599.9999999999998,139.99999999999997) translate(170.52160493827162 66.35277777777779)"/><use xlink:href="#i" transform="matrix(1,0,0,1,599.9999999999998,139.99999999999997) translate(81.59567901234568 85.01944444444446)"/></g><path d="M367.68 316.93h-56.53l-2.73.9-1.62 2.22-.23 1.42v47.92h-1v-48l.28-1.75 1.95-2.68 3.2-1.04h56.68zm339.88-9.83h-1v-59.5h1zM707.56 247.6h-1v-.5h1zM306.07 384.15l-4.64-14.26h9.27z" fill="#666"/><path d="M306.07 385.77l-5.33-16.38h10.65zm-3.95-15.38l3.95 12.14L310 370.4z" fill="#666"/><g><use xlink:href="#y" transform="matrix(1,0,0,1,367.67731788851694,307.0960250192292) translate(0 12.444444444444446)"/><use xlink:href="#C" transform="matrix(1,0,0,1,367.67731788851694,307.0960250192292) translate(23.333333333333336 12.444444444444446)"/><use xlink:href="#Q" transform="matrix(1,0,0,1,367.67731788851694,307.0960250192292) translate(64.68518518518519 12.444444444444446)"/><use xlink:href="#G" transform="matrix(1,0,0,1,367.67731788851694,307.0960250192292) translate(87.11111111111111 12.444444444444446)"/><use xlink:href="#R" transform="matrix(1,0,0,1,367.67731788851694,307.0960250192292) translate(113.03703703703704 12.444444444444446)"/><use xlink:href="#D" transform="matrix(1,0,0,1,367.67731788851694,307.0960250192292) translate(169.16666666666669 12.444444444444446)"/><use xlink:href="#E" transform="matrix(1,0,0,1,367.67731788851694,307.0960250192292) translate(202.87037037037038 12.444444444444446)"/><use xlink:href="#F" transform="matrix(1,0,0,1,367.67731788851694,307.0960250192292) translate(236.57407407407408 12.444444444444446)"/><use xlink:href="#G" transform="matrix(1,0,0,1,367.67731788851694,307.0960250192292) translate(253.85802469135803 12.444444444444446)"/><use xlink:href="#S" transform="matrix(1,0,0,1,367.67731788851694,307.0960250192292) translate(279.78395061728395 12.444444444444446)"/></g><defs><path fill="#b2b2b2" d="M182-130c37 4 62 22 62 59C244 23 116-4 24 0v-248c84 5 203-23 205 63 0 31-19 50-47 55zM76-148c40-3 101 13 101-30 0-44-60-28-101-31v61zm0 110c48-3 116 14 116-37 0-48-69-32-116-35v72" id="T"/><path fill="#b2b2b2" d="M24-248c93 1 206-16 204 79-1 75-69 88-152 82V0H24v-248zm52 121c47 0 100 7 100-41 0-47-54-39-100-39v80" id="U"/><path fill="#b2b2b2" d="M230 0l2-204L168 0h-37L68-204 70 0H24v-248h70l56 185 57-185h69V0h-46" id="V"/><path fill="#b2b2b2" d="M175 0L67-191c6 58 2 128 3 191H24v-248h59L193-55c-6-58-2-129-3-193h46V0h-61" id="W"/><g id="a"><use transform="matrix(0.07407407407407408,0,0,0.07407407407407408,0,0)" xlink:href="#T"/><use transform="matrix(0.07407407407407408,0,0,0.07407407407407408,19.185185185185187,0)" xlink:href="#U"/><use transform="matrix(0.07407407407407408,0,0,0.07407407407407408,36.96296296296296,0)" xlink:href="#V"/><use transform="matrix(0.07407407407407408,0,0,0.07407407407407408,59.11111111111111,0)" xlink:href="#W"/></g><path fill="#b2b2b2" d="M199 0l-22-63H83L61 0H9l90-248h61L250 0h-51zm-33-102l-36-108c-10 38-24 72-36 108h72" id="X"/><path fill="#b2b2b2" d="M135-194c53 0 70 44 70 98 0 56-19 98-73 100-31 1-45-17-59-34 3 33 2 69 2 105H25l-1-265h48c2 10 0 23 3 31 11-24 29-35 60-35zM114-30c33 0 39-31 40-66 0-38-9-64-40-64-56 0-55 130 0 130" id="Y"/><path fill="#b2b2b2" d="M135-150c-39-12-60 13-60 57V0H25l-1-190h47c2 13-1 29 3 40 6-28 27-53 61-41v41" id="Z"/><path fill="#b2b2b2" d="M110-194c64 0 96 36 96 99 0 64-35 99-97 99-61 0-95-36-95-99 0-62 34-99 96-99zm-1 164c35 0 45-28 45-65 0-40-10-65-43-65-34 0-45 26-45 65 0 36 10 65 43 65" id="aa"/><path fill="#b2b2b2" d="M128 0H69L1-190h53L99-40l48-150h52" id="ab"/><path fill="#b2b2b2" d="M133-34C117-15 103 5 69 4 32 3 11-16 11-54c-1-60 55-63 116-61 1-26-3-47-28-47-18 1-26 9-28 27l-52-2c7-38 36-58 82-57s74 22 75 68l1 82c-1 14 12 18 25 15v27c-30 8-71 5-69-32zm-48 3c29 0 43-24 42-57-32 0-66-3-65 30 0 17 8 27 23 27" id="ac"/><path fill="#b2b2b2" d="M25 0v-261h50V0H25" id="ad"/><g id="b"><use transform="matrix(0.07407407407407408,0,0,0.07407407407407408,0,0)" xlink:href="#X"/><use transform="matrix(0.07407407407407408,0,0,0.07407407407407408,19.185185185185187,0)" xlink:href="#Y"/><use transform="matrix(0.07407407407407408,0,0,0.07407407407407408,35.40740740740741,0)" xlink:href="#Y"/><use transform="matrix(0.07407407407407408,0,0,0.07407407407407408,51.62962962962963,0)" xlink:href="#Z"/><use transform="matrix(0.07407407407407408,0,0,0.07407407407407408,62.00000000000001,0)" xlink:href="#aa"/><use transform="matrix(0.07407407407407408,0,0,0.07407407407407408,78.22222222222223,0)" xlink:href="#ab"/><use transform="matrix(0.07407407407407408,0,0,0.07407407407407408,93.03703703703704,0)" xlink:href="#ac"/><use transform="matrix(0.07407407407407408,0,0,0.07407407407407408,107.85185185185185,0)" xlink:href="#ad"/></g><path fill="#b2b2b2" d="M275 0h-61l-44-196L126 0H64L0-248h53L97-49l45-199h58l43 199 44-199h52" id="ae"/><path fill="#b2b2b2" d="M147 0L96-86 75-71V0H25v-261h50v150l67-79h53l-66 74L201 0h-54" id="af"/><path fill="#b2b2b2" d="M121-226c-27-7-43 5-38 36h38v33H83V0H34v-157H6v-33h28c-9-59 32-81 87-68v32" id="ag"/><path fill="#b2b2b2" d="M231 0h-52l-39-155L100 0H48L-1-190h46L77-45c9-52 24-97 36-145h53l37 145 32-145h46" id="ah"/><g id="c"><use transform="matrix(0.07407407407407408,0,0,0.07407407407407408,0,0)" xlink:href="#ae"/><use transform="matrix(0.07407407407407408,0,0,0.07407407407407408,24.592592592592595,0)" xlink:href="#aa"/><use transform="matrix(0.07407407407407408,0,0,0.07407407407407408,40.81481481481482,0)" xlink:href="#Z"/><use transform="matrix(0.07407407407407408,0,0,0.07407407407407408,51.1851851851852,0)" xlink:href="#af"/><use transform="matrix(0.07407407407407408,0,0,0.07407407407407408,66.00000000000001,0)" xlink:href="#ag"/><use transform="matrix(0.07407407407407408,0,0,0.07407407407407408,74.81481481481484,0)" xlink:href="#ad"/><use transform="matrix(0.07407407407407408,0,0,0.07407407407407408,82.22222222222226,0)" xlink:href="#aa"/><use transform="matrix(0.07407407407407408,0,0,0.07407407407407408,98.44444444444447,0)" xlink:href="#ah"/></g><path fill="#666" d="M190 0L58-211 59 0H30v-248h39L202-35l-2-213h31V0h-41" id="ai"/><path fill="#666" d="M100-194c62-1 85 37 85 99 1 63-27 99-86 99S16-35 15-95c0-66 28-99 85-99zM99-20c44 1 53-31 53-75 0-43-8-75-51-75s-53 32-53 75 10 74 51 75" id="aj"/><g id="d"><use transform="matrix(0.04320987654320988,0,0,0.04320987654320988,0,0)" xlink:href="#ai"/><use transform="matrix(0.04320987654320988,0,0,0.04320987654320988,11.19135802469136,0)" xlink:href="#aj"/></g><path fill="#fff" d="M125-24c46 0 70-25 89-51l25 16C214-24 183 4 123 4 8 4-5-146 60-208c32-50 158-61 191-5 5 7 9 14 11 22l-32 10c-9-28-33-43-69-43-74 0-108 51-108 125 0 46 24 75 72 75" id="ak"/><path fill="#fff" d="M66-151c12-25 30-51 66-40l-6 26C45-176 58-65 38 0H6l36-190h30" id="al"/><path fill="#fff" d="M111-194c62-3 86 47 72 106H45c-7 38 6 69 45 68 27-1 43-14 53-32l24 11C152-15 129 4 87 4 38 3 12-23 12-71c0-70 32-119 99-123zm44 81c14-66-71-72-95-28-4 8-8 17-11 28h106" id="am"/><path fill="#fff" d="M165-48c-4 18 1 34 23 27l-3 20c-29 8-62 0-52-35h-2C116-14 99 4 63 4 30 4 8-16 8-49c0-68 71-67 138-67 10-26 0-56-31-54-26 1-42 9-47 31l-32-5c8-67 160-71 144 15-5 28-9 54-15 81zM42-50c3 52 80 24 89-6 7-12 7-24 11-38-47 1-103-4-100 44" id="an"/><path fill="#fff" d="M51-54c-9 22 5 41 31 30L79-1C43 14 10-4 19-52l22-115H19l5-23h22l19-43h21l-9 43h35l-4 23H73" id="ao"/><g id="e"><use transform="matrix(0.04320987654320988,0,0,0.04320987654320988,0,0)" xlink:href="#ak"/><use transform="matrix(0.04320987654320988,0,0,0.04320987654320988,11.19135802469136,0)" xlink:href="#al"/><use transform="matrix(0.04320987654320988,0,0,0.04320987654320988,16.333333333333336,0)" xlink:href="#am"/><use transform="matrix(0.04320987654320988,0,0,0.04320987654320988,24.97530864197531,0)" xlink:href="#an"/><use transform="matrix(0.04320987654320988,0,0,0.04320987654320988,33.617283950617285,0)" xlink:href="#ao"/><use transform="matrix(0.04320987654320988,0,0,0.04320987654320988,37.93827160493827,0)" xlink:href="#am"/></g><use transform="matrix(0.04320987654320988,0,0,0.04320987654320988,0,0)" xlink:href="#an" id="f"/><path fill="#fff" d="M50-231l6-30h32l-6 30H50zM6 0l37-190h31L37 0H6" id="ap"/><path fill="#fff" d="M248-111c6-24 9-61-24-58-72 9-57 108-77 169h-31l26-142c3-37-50-30-64-10C52-115 50-51 37 0H6l36-190h30c-1 10-6 24-4 32 13-43 101-52 105 5 13-22 29-41 61-41 90 0 28 129 23 194h-31" id="aq"/><g id="g"><use transform="matrix(0.04320987654320988,0,0,0.04320987654320988,0,0)" xlink:href="#ao"/><use transform="matrix(0.04320987654320988,0,0,0.04320987654320988,4.320987654320988,0)" xlink:href="#ap"/><use transform="matrix(0.04320987654320988,0,0,0.04320987654320988,7.734567901234569,0)" xlink:href="#aq"/><use transform="matrix(0.04320987654320988,0,0,0.04320987654320988,20.654320987654323,0)" xlink:href="#am"/></g><path fill="#fff" d="M30-147c31-64 166-65 159 27C183-49 158 1 86 4 9 8 1-88 30-147zM88-20c53 0 68-48 68-100 0-31-11-51-44-50-52 1-68 46-68 97 0 32 13 53 44 53" id="ar"/><path fill="#fff" d="M76-167L44 0H12l33-167H18l4-23h27c3-47 25-81 82-69l-4 24c-35-8-44 15-46 45h37l-5 23H76" id="as"/><g id="h"><use transform="matrix(0.04320987654320988,0,0,0.04320987654320988,0,0)" xlink:href="#ar"/><use transform="matrix(0.04320987654320988,0,0,0.04320987654320988,8.641975308641976,0)" xlink:href="#as"/><use transform="matrix(0.04320987654320988,0,0,0.04320987654320988,12.962962962962964,0)" xlink:href="#as"/></g><path fill="#fff" d="M133-28C103 26-5 8 13-77c13-62 24-115 90-117 29-1 46 15 56 35 2-12 6-24 8-34h31L144 75h-31zM45-64c-2 27 10 43 35 43 54-1 69-50 69-103 0-29-15-46-42-46-53-1-58 58-62 106" id="at"/><path fill="#fff" d="M67 3c-93-2-31-127-26-193h32L48-50c-3 39 53 32 70 12 30-34 30-101 43-152h32L157 0h-30c1-10 6-24 4-33-14 20-29 37-64 36" id="au"/><path fill="#fff" d="M55-144c13 50 104 24 104 88C159 21 15 23 1-39l26-10c6 40 102 42 102-4-13-50-104-23-104-87 0-71 143-71 148-8l-29 4c-5-35-85-37-89 0" id="av"/><g id="i"><use transform="matrix(0.04320987654320988,0,0,0.04320987654320988,0,0)" xlink:href="#al"/><use transform="matrix(0.04320987654320988,0,0,0.04320987654320988,5.1419753086419755,0)" xlink:href="#am"/><use transform="matrix(0.04320987654320988,0,0,0.04320987654320988,13.783950617283953,0)" xlink:href="#at"/><use transform="matrix(0.04320987654320988,0,0,0.04320987654320988,22.425925925925934,0)" xlink:href="#au"/><use transform="matrix(0.04320987654320988,0,0,0.04320987654320988,31.067901234567906,0)" xlink:href="#am"/><use transform="matrix(0.04320987654320988,0,0,0.04320987654320988,39.70987654320988,0)" xlink:href="#av"/><use transform="matrix(0.04320987654320988,0,0,0.04320987654320988,47.48765432098766,0)" xlink:href="#ao"/></g><path fill="#fff" d="M222 0l43-216c-8 16-17 34-26 49L143 0h-22L81-216 41 0H11l48-248h42l38 208 116-208h45L252 0h-30" id="aw"/><path fill="#fff" d="M67-158c22-48 132-52 116 29L158 0h-32l25-140c3-38-53-32-70-12C52-117 51-52 38 0H6l36-190h30" id="ax"/><path fill="#fff" d="M103-194c29 0 47 14 56 36 2-11 5-23 8-32h30L160-5C157 61 82 97 21 62 9 55 4 45 1 30l28-7c7 42 83 31 92-3 4-16 9-38 13-55-13 20-29 36-62 36-40 0-60-25-60-64 0-71 23-131 91-131zm4 24c-53 0-58 54-61 104-2 27 10 44 36 44 49 0 65-50 67-102 1-29-15-46-42-46" id="ay"/><g id="j"><use transform="matrix(0.04320987654320988,0,0,0.04320987654320988,0,0)" xlink:href="#aw"/><use transform="matrix(0.04320987654320988,0,0,0.04320987654320988,12.919753086419755,0)" xlink:href="#an"/><use transform="matrix(0.04320987654320988,0,0,0.04320987654320988,21.56172839506173,0)" xlink:href="#ax"/><use transform="matrix(0.04320987654320988,0,0,0.04320987654320988,30.203703703703713,0)" xlink:href="#an"/><use transform="matrix(0.04320987654320988,0,0,0.04320987654320988,38.845679012345684,0)" xlink:href="#an"/><use transform="matrix(0.04320987654320988,0,0,0.04320987654320988,47.48765432098766,0)" xlink:href="#ay"/><use transform="matrix(0.04320987654320988,0,0,0.04320987654320988,56.12962962962963,0)" xlink:href="#am"/><use transform="matrix(0.04320987654320988,0,0,0.04320987654320988,64.77160493827161,0)" xlink:href="#al"/></g><g id="k"><use transform="matrix(0.04320987654320988,0,0,0.04320987654320988,0,0)" xlink:href="#av"/><use transform="matrix(0.04320987654320988,0,0,0.04320987654320988,7.777777777777779,0)" xlink:href="#am"/><use transform="matrix(0.04320987654320988,0,0,0.04320987654320988,16.419753086419753,0)" xlink:href="#am"/><use transform="matrix(0.04320987654320988,0,0,0.04320987654320988,25.061728395061728,0)" xlink:href="#av"/></g><path fill="#fff" d="M67-158c15-20 31-36 64-36 94 0 33 127 27 194h-32l25-140c3-38-53-32-70-12C52-117 51-51 37 0H6l51-261h31" id="az"/><g id="l"><use transform="matrix(0.04320987654320988,0,0,0.04320987654320988,0,0)" xlink:href="#ao"/><use transform="matrix(0.04320987654320988,0,0,0.04320987654320988,4.320987654320988,0)" xlink:href="#az"/><use transform="matrix(0.04320987654320988,0,0,0.04320987654320988,12.962962962962964,0)" xlink:href="#am"/></g><g id="m"><use transform="matrix(0.04320987654320988,0,0,0.04320987654320988,0,0)" xlink:href="#ar"/><use transform="matrix(0.04320987654320988,0,0,0.04320987654320988,8.641975308641976,0)" xlink:href="#as"/><use transform="matrix(0.04320987654320988,0,0,0.04320987654320988,12.962962962962964,0)" xlink:href="#as"/></g><path fill="#fff" d="M6 0l48-248h195l-8 40H98l-12 63h132l-7 40H79L66-40h150l-8 40H6" id="aA"/><path fill="#fff" d="M255-194c90 0 29 129 24 194h-49l25-136c-7-39-53-14-60 9-12 38-18 85-28 127h-49l25-136c2-29-39-23-50-7C69-108 68-47 56 0H6l36-190h48c-1 10-6 24-4 32 12-20 27-36 57-36s46 15 50 41c14-21 29-41 62-41" id="aB"/><path fill="#fff" d="M156-122c2-23-7-37-28-37-47 0-58 44-58 89 0 24 12 40 36 40 43 0 47-49 50-92zM-8 75l50-265h48c0 10-3 24-3 30 22-50 127-45 121 29-6 73-21 135-92 135-29 0-46-14-55-35L41 75H-8" id="aC"/><path fill="#fff" d="M6 0l51-261h49L55 0H6" id="aD"/><path fill="#fff" d="M124-194c51 0 84 22 84 74C207-44 167 4 94 4 43 4 11-23 11-74c0-74 41-120 113-120zM99-30c46 0 58-42 58-86 0-27-11-44-37-44-44 0-55 40-57 84-1 27 10 45 36 46" id="aE"/><path fill="#fff" d="M100 10C77 47 50 87-15 72l7-35c37 9 51-18 65-41L20-190h51L89-44l73-146h53" id="aF"/><path fill="#fff" d="M114-194c63-2 87 48 72 110H63c-3 28 1 55 31 54 21-1 32-13 37-29l44 13C160-14 137 4 91 4 41 4 11-22 11-73c0-71 33-119 103-121zm30 77c14-47-50-61-67-22-3 6-6 13-8 22h75" id="aG"/><g id="n"><use transform="matrix(0.04938271604938272,0,0,0.04938271604938272,0,0)" xlink:href="#aA"/><use transform="matrix(0.04938271604938272,0,0,0.04938271604938272,11.851851851851853,0)" xlink:href="#aB"/><use transform="matrix(0.04938271604938272,0,0,0.04938271604938272,27.654320987654323,0)" xlink:href="#aC"/><use transform="matrix(0.04938271604938272,0,0,0.04938271604938272,38.46913580246914,0)" xlink:href="#aD"/><use transform="matrix(0.04938271604938272,0,0,0.04938271604938272,43.40740740740741,0)" xlink:href="#aE"/><use transform="matrix(0.04938271604938272,0,0,0.04938271604938272,54.22222222222223,0)" xlink:href="#aF"/><use transform="matrix(0.04938271604938272,0,0,0.04938271604938272,64.09876543209877,0)" xlink:href="#aG"/><use transform="matrix(0.04938271604938272,0,0,0.04938271604938272,73.97530864197532,0)" xlink:href="#aG"/></g><path fill="#fff" d="M183 0l-10-63H79L44 0H-7l138-248h61L234 0h-51zm-14-102l-15-108c-16 38-36 73-55 108h70" id="aH"/><path fill="#fff" d="M84-151c13-25 34-51 72-40l-8 41C67-170 71-64 56 0H6l36-190h47" id="aI"/><path fill="#fff" d="M109 0H50L19-190h51L86-37l77-153h54" id="aJ"/><g id="o"><use transform="matrix(0.04938271604938272,0,0,0.04938271604938272,0,0)" xlink:href="#aH"/><use transform="matrix(0.04938271604938272,0,0,0.04938271604938272,12.790123456790125,0)" xlink:href="#aC"/><use transform="matrix(0.04938271604938272,0,0,0.04938271604938272,23.60493827160494,0)" xlink:href="#aC"/><use transform="matrix(0.04938271604938272,0,0,0.04938271604938272,34.41975308641975,0)" xlink:href="#aI"/><use transform="matrix(0.04938271604938272,0,0,0.04938271604938272,41.333333333333336,0)" xlink:href="#aE"/><use transform="matrix(0.04938271604938272,0,0,0.04938271604938272,52.14814814814815,0)" xlink:href="#aJ"/><use transform="matrix(0.04938271604938272,0,0,0.04938271604938272,62.0246913580247,0)" xlink:href="#aG"/><use transform="matrix(0.04938271604938272,0,0,0.04938271604938272,71.90123456790124,0)" xlink:href="#aI"/></g><path fill="#666" d="M240 0l2-218c-23 76-54 145-80 218h-23L58-218 59 0H30v-248h44l77 211c21-75 51-140 76-211h43V0h-30" id="aK"/><path fill="#666" d="M141-36C126-15 110 5 73 4 37 3 15-17 15-53c-1-64 63-63 125-63 3-35-9-54-41-54-24 1-41 7-42 31l-33-3c5-37 33-52 76-52 45 0 72 20 72 64v82c-1 20 7 32 28 27v20c-31 9-61-2-59-35zM48-53c0 20 12 33 32 33 41-3 63-29 60-74-43 2-92-5-92 41" id="aL"/><path fill="#666" d="M117-194c89-4 53 116 60 194h-32v-121c0-31-8-49-39-48C34-167 62-67 57 0H25l-1-190h30c1 10-1 24 2 32 11-22 29-35 61-36" id="aM"/><path fill="#666" d="M177-190C167-65 218 103 67 71c-23-6-38-20-44-43l32-5c15 47 100 32 89-28v-30C133-14 115 1 83 1 29 1 15-40 15-95c0-56 16-97 71-98 29-1 48 16 59 35 1-10 0-23 2-32h30zM94-22c36 0 50-32 50-73 0-42-14-75-50-75-39 0-46 34-46 75s6 73 46 73" id="aN"/><path fill="#666" d="M100-194c63 0 86 42 84 106H49c0 40 14 67 53 68 26 1 43-12 49-29l28 8c-11 28-37 45-77 45C44 4 14-33 15-96c1-61 26-98 85-98zm52 81c6-60-76-77-97-28-3 7-6 17-6 28h103" id="aO"/><path fill="#666" d="M114-163C36-179 61-72 57 0H25l-1-190h30c1 12-1 29 2 39 6-27 23-49 58-41v29" id="aP"/><g id="p"><use transform="matrix(0.04320987654320988,0,0,0.04320987654320988,0,0)" xlink:href="#aK"/><use transform="matrix(0.04320987654320988,0,0,0.04320987654320988,12.919753086419755,0)" xlink:href="#aL"/><use transform="matrix(0.04320987654320988,0,0,0.04320987654320988,21.56172839506173,0)" xlink:href="#aM"/><use transform="matrix(0.04320987654320988,0,0,0.04320987654320988,30.203703703703713,0)" xlink:href="#aL"/><use transform="matrix(0.04320987654320988,0,0,0.04320987654320988,38.845679012345684,0)" xlink:href="#aN"/><use transform="matrix(0.04320987654320988,0,0,0.04320987654320988,47.48765432098766,0)" xlink:href="#aO"/><use transform="matrix(0.04320987654320988,0,0,0.04320987654320988,56.12962962962963,0)" xlink:href="#aP"/></g><path fill="#666" d="M85-194c31 0 48 13 60 33l-1-100h32l1 261h-30c-2-10 0-23-3-31C134-8 116 4 85 4 32 4 16-35 15-94c0-66 23-100 70-100zm9 24c-40 0-46 34-46 75 0 40 6 74 45 74 42 0 51-32 51-76 0-42-9-74-50-73" id="aQ"/><path fill="#666" d="M96-169c-40 0-48 33-48 73s9 75 48 75c24 0 41-14 43-38l32 2c-6 37-31 61-74 61-59 0-76-41-82-99-10-93 101-131 147-64 4 7 5 14 7 22l-32 3c-4-21-16-35-41-35" id="aR"/><path fill="#666" d="M24-231v-30h32v30H24zM24 0v-190h32V0H24" id="aS"/><path fill="#666" d="M135-143c-3-34-86-38-87 0 15 53 115 12 119 90S17 21 10-45l28-5c4 36 97 45 98 0-10-56-113-15-118-90-4-57 82-63 122-42 12 7 21 19 24 35" id="aT"/><g id="q"><use transform="matrix(0.04320987654320988,0,0,0.04320987654320988,0,0)" xlink:href="#aQ"/><use transform="matrix(0.04320987654320988,0,0,0.04320987654320988,8.641975308641976,0)" xlink:href="#aO"/><use transform="matrix(0.04320987654320988,0,0,0.04320987654320988,17.283950617283953,0)" xlink:href="#aR"/><use transform="matrix(0.04320987654320988,0,0,0.04320987654320988,25.06172839506173,0)" xlink:href="#aS"/><use transform="matrix(0.04320987654320988,0,0,0.04320987654320988,28.47530864197531,0)" xlink:href="#aQ"/><use transform="matrix(0.04320987654320988,0,0,0.04320987654320988,37.117283950617285,0)" xlink:href="#aO"/><use transform="matrix(0.04320987654320988,0,0,0.04320987654320988,45.75925925925927,0)" xlink:href="#aT"/></g><path fill="#666" d="M59-47c-2 24 18 29 38 22v24C64 9 27 4 27-40v-127H5v-23h24l9-43h21v43h35v23H59v120" id="aU"/><g id="r"><use transform="matrix(0.04320987654320988,0,0,0.04320987654320988,0,0)" xlink:href="#aU"/><use transform="matrix(0.04320987654320988,0,0,0.04320987654320988,4.320987654320988,0)" xlink:href="#aj"/></g><path fill="#666" d="M115-194c55 1 70 41 70 98S169 2 115 4C84 4 66-9 55-30l1 105H24l-1-265h31l2 30c10-21 28-34 59-34zm-8 174c40 0 45-34 45-75s-6-73-45-74c-42 0-51 32-51 76 0 43 10 73 51 73" id="aV"/><path fill="#666" d="M108 0H70L1-190h34L89-25l56-165h34" id="aW"/><g id="s"><use transform="matrix(0.04320987654320988,0,0,0.04320987654320988,0,0)" xlink:href="#aL"/><use transform="matrix(0.04320987654320988,0,0,0.04320987654320988,8.641975308641976,0)" xlink:href="#aV"/><use transform="matrix(0.04320987654320988,0,0,0.04320987654320988,17.283950617283953,0)" xlink:href="#aV"/><use transform="matrix(0.04320987654320988,0,0,0.04320987654320988,25.925925925925927,0)" xlink:href="#aP"/><use transform="matrix(0.04320987654320988,0,0,0.04320987654320988,31.067901234567906,0)" xlink:href="#aj"/><use transform="matrix(0.04320987654320988,0,0,0.04320987654320988,39.70987654320988,0)" xlink:href="#aW"/><use transform="matrix(0.04320987654320988,0,0,0.04320987654320988,47.48765432098766,0)" xlink:href="#aO"/></g><g id="t"><use transform="matrix(0.04320987654320988,0,0,0.04320987654320988,0,0)" xlink:href="#aj"/><use transform="matrix(0.04320987654320988,0,0,0.04320987654320988,8.641975308641976,0)" xlink:href="#aP"/></g><path fill="#666" d="M24-231v-30h32v30H24zM-9 49c24 4 33-6 33-30v-209h32V24c2 40-23 58-65 49V49" id="aX"/><g id="u"><use transform="matrix(0.04320987654320988,0,0,0.04320987654320988,0,0)" xlink:href="#aP"/><use transform="matrix(0.04320987654320988,0,0,0.04320987654320988,5.1419753086419755,0)" xlink:href="#aO"/><use transform="matrix(0.04320987654320988,0,0,0.04320987654320988,13.783950617283953,0)" xlink:href="#aX"/><use transform="matrix(0.04320987654320988,0,0,0.04320987654320988,17.19753086419753,0)" xlink:href="#aO"/><use transform="matrix(0.04320987654320988,0,0,0.04320987654320988,25.839506172839503,0)" xlink:href="#aR"/><use transform="matrix(0.04320987654320988,0,0,0.04320987654320988,33.617283950617285,0)" xlink:href="#aU"/></g><path fill="#666" d="M106-169C34-169 62-67 57 0H25v-261h32l-1 103c12-21 28-36 61-36 89 0 53 116 60 194h-32v-121c2-32-8-49-39-48" id="aY"/><g id="v"><use transform="matrix(0.04320987654320988,0,0,0.04320987654320988,0,0)" xlink:href="#aU"/><use transform="matrix(0.04320987654320988,0,0,0.04320987654320988,4.320987654320988,0)" xlink:href="#aY"/><use transform="matrix(0.04320987654320988,0,0,0.04320987654320988,12.962962962962964,0)" xlink:href="#aO"/></g><path fill="#666" d="M145-31C134-9 116 4 85 4 32 4 16-35 15-94c0-59 17-99 70-100 32-1 48 14 60 33 0-11-1-24 2-32h30l-1 268h-32zM93-21c41 0 51-33 51-76s-8-73-50-73c-40 0-46 35-46 75s5 74 45 74" id="aZ"/><path fill="#666" d="M84 4C-5 8 30-112 23-190h32v120c0 31 7 50 39 49 72-2 45-101 50-169h31l1 190h-30c-1-10 1-25-2-33-11 22-28 36-60 37" id="ba"/><g id="w"><use transform="matrix(0.04320987654320988,0,0,0.04320987654320988,0,0)" xlink:href="#aP"/><use transform="matrix(0.04320987654320988,0,0,0.04320987654320988,5.1419753086419755,0)" xlink:href="#aO"/><use transform="matrix(0.04320987654320988,0,0,0.04320987654320988,13.783950617283953,0)" xlink:href="#aZ"/><use transform="matrix(0.04320987654320988,0,0,0.04320987654320988,22.425925925925934,0)" xlink:href="#ba"/><use transform="matrix(0.04320987654320988,0,0,0.04320987654320988,31.067901234567906,0)" xlink:href="#aO"/><use transform="matrix(0.04320987654320988,0,0,0.04320987654320988,39.70987654320988,0)" xlink:href="#aT"/><use transform="matrix(0.04320987654320988,0,0,0.04320987654320988,47.48765432098766,0)" xlink:href="#aU"/></g><path fill="#666" d="M137-103V0h-34v-103L8-248h37l75 118 75-118h37" id="bb"/><g id="x"><use transform="matrix(0.04320987654320988,0,0,0.04320987654320988,0,0)" xlink:href="#bb"/><use transform="matrix(0.04320987654320988,0,0,0.04320987654320988,8.944444444444446,0)" xlink:href="#aO"/><use transform="matrix(0.04320987654320988,0,0,0.04320987654320988,17.586419753086425,0)" xlink:href="#aT"/></g><path fill="#666" d="M205 0l-28-72H64L36 0H1l101-248h38L239 0h-34zm-38-99l-47-123c-12 45-31 82-46 123h93" id="bc"/><g id="y"><use transform="matrix(0.04320987654320988,0,0,0.04320987654320988,0,0)" xlink:href="#bc"/><use transform="matrix(0.04320987654320988,0,0,0.04320987654320988,10.370370370370372,0)" xlink:href="#aM"/></g><g id="z"><use transform="matrix(0.04320987654320988,0,0,0.04320987654320988,0,0)" xlink:href="#aP"/><use transform="matrix(0.04320987654320988,0,0,0.04320987654320988,5.1419753086419755,0)" xlink:href="#aO"/><use transform="matrix(0.04320987654320988,0,0,0.04320987654320988,13.783950617283953,0)" xlink:href="#aX"/><use transform="matrix(0.04320987654320988,0,0,0.04320987654320988,17.19753086419753,0)" xlink:href="#aO"/><use transform="matrix(0.04320987654320988,0,0,0.04320987654320988,25.839506172839503,0)" xlink:href="#aR"/><use transform="matrix(0.04320987654320988,0,0,0.04320987654320988,33.617283950617285,0)" xlink:href="#aU"/><use transform="matrix(0.04320987654320988,0,0,0.04320987654320988,37.93827160493827,0)" xlink:href="#aO"/><use transform="matrix(0.04320987654320988,0,0,0.04320987654320988,46.58024691358024,0)" xlink:href="#aQ"/></g><path fill="#666" d="M210-169c-67 3-38 105-44 169h-31v-121c0-29-5-50-35-48C34-165 62-65 56 0H25l-1-190h30c1 10-1 24 2 32 10-44 99-50 107 0 11-21 27-35 58-36 85-2 47 119 55 194h-31v-121c0-29-5-49-35-48" id="bd"/><g id="A"><use transform="matrix(0.04320987654320988,0,0,0.04320987654320988,0,0)" xlink:href="#aU"/><use transform="matrix(0.04320987654320988,0,0,0.04320987654320988,4.320987654320988,0)" xlink:href="#aS"/><use transform="matrix(0.04320987654320988,0,0,0.04320987654320988,7.734567901234569,0)" xlink:href="#bd"/><use transform="matrix(0.04320987654320988,0,0,0.04320987654320988,20.654320987654323,0)" xlink:href="#aO"/></g><path fill="#666" d="M101-234c-31-9-42 10-38 44h38v23H63V0H32v-167H5v-23h27c-7-52 17-82 69-68v24" id="be"/><g id="B"><use transform="matrix(0.04320987654320988,0,0,0.04320987654320988,0,0)" xlink:href="#aj"/><use transform="matrix(0.04320987654320988,0,0,0.04320987654320988,8.641975308641976,0)" xlink:href="#be"/><use transform="matrix(0.04320987654320988,0,0,0.04320987654320988,12.660493827160492,0)" xlink:href="#be"/></g><path fill="#666" d="M24 0v-261h32V0H24" id="bf"/><g id="C"><use transform="matrix(0.04320987654320988,0,0,0.04320987654320988,0,0)" xlink:href="#aO"/><use transform="matrix(0.04320987654320988,0,0,0.04320987654320988,8.641975308641976,0)" xlink:href="#bd"/><use transform="matrix(0.04320987654320988,0,0,0.04320987654320988,21.56172839506173,0)" xlink:href="#aL"/><use transform="matrix(0.04320987654320988,0,0,0.04320987654320988,30.203703703703713,0)" xlink:href="#aS"/><use transform="matrix(0.04320987654320988,0,0,0.04320987654320988,33.61728395061729,0)" xlink:href="#bf"/></g><g id="D"><use transform="matrix(0.04320987654320988,0,0,0.04320987654320988,0,0)" xlink:href="#aN"/><use transform="matrix(0.04320987654320988,0,0,0.04320987654320988,8.641975308641976,0)" xlink:href="#aO"/><use transform="matrix(0.04320987654320988,0,0,0.04320987654320988,17.283950617283953,0)" xlink:href="#aU"/><use transform="matrix(0.04320987654320988,0,0,0.04320987654320988,21.60493827160494,0)" xlink:href="#aT"/></g><g id="E"><use transform="matrix(0.04320987654320988,0,0,0.04320987654320988,0,0)" xlink:href="#aT"/><use transform="matrix(0.04320987654320988,0,0,0.04320987654320988,7.777777777777779,0)" xlink:href="#aO"/><use transform="matrix(0.04320987654320988,0,0,0.04320987654320988,16.419753086419753,0)" xlink:href="#aM"/><use transform="matrix(0.04320987654320988,0,0,0.04320987654320988,25.061728395061728,0)" xlink:href="#aU"/></g><g id="F"><use transform="matrix(0.04320987654320988,0,0,0.04320987654320988,0,0)" xlink:href="#aU"/><use transform="matrix(0.04320987654320988,0,0,0.04320987654320988,4.320987654320988,0)" xlink:href="#aj"/></g><g id="G"><use transform="matrix(0.04320987654320988,0,0,0.04320987654320988,0,0)" xlink:href="#aU"/><use transform="matrix(0.04320987654320988,0,0,0.04320987654320988,4.320987654320988,0)" xlink:href="#aY"/><use transform="matrix(0.04320987654320988,0,0,0.04320987654320988,12.962962962962964,0)" xlink:href="#aO"/></g><path fill="#666" d="M179-190L93 31C79 59 56 82 12 73V49c39 6 53-20 64-50L1-190h34L92-34l54-156h33" id="bg"/><g id="H"><use transform="matrix(0.04320987654320988,0,0,0.04320987654320988,0,0)" xlink:href="#aO"/><use transform="matrix(0.04320987654320988,0,0,0.04320987654320988,8.641975308641976,0)" xlink:href="#bd"/><use transform="matrix(0.04320987654320988,0,0,0.04320987654320988,21.56172839506173,0)" xlink:href="#aV"/><use transform="matrix(0.04320987654320988,0,0,0.04320987654320988,30.203703703703713,0)" xlink:href="#bf"/><use transform="matrix(0.04320987654320988,0,0,0.04320987654320988,33.61728395061729,0)" xlink:href="#aj"/><use transform="matrix(0.04320987654320988,0,0,0.04320987654320988,42.25925925925927,0)" xlink:href="#bg"/><use transform="matrix(0.04320987654320988,0,0,0.04320987654320988,50.037037037037045,0)" xlink:href="#aO"/><use transform="matrix(0.04320987654320988,0,0,0.04320987654320988,58.67901234567902,0)" xlink:href="#aO"/></g><g id="I"><use transform="matrix(0.04320987654320988,0,0,0.04320987654320988,0,0)" xlink:href="#aL"/><use transform="matrix(0.04320987654320988,0,0,0.04320987654320988,8.641975308641976,0)" xlink:href="#aV"/><use transform="matrix(0.04320987654320988,0,0,0.04320987654320988,17.283950617283953,0)" xlink:href="#aV"/><use transform="matrix(0.04320987654320988,0,0,0.04320987654320988,25.925925925925927,0)" xlink:href="#aP"/><use transform="matrix(0.04320987654320988,0,0,0.04320987654320988,31.067901234567906,0)" xlink:href="#aj"/><use transform="matrix(0.04320987654320988,0,0,0.04320987654320988,39.70987654320988,0)" xlink:href="#aW"/><use transform="matrix(0.04320987654320988,0,0,0.04320987654320988,47.48765432098766,0)" xlink:href="#aO"/><use transform="matrix(0.04320987654320988,0,0,0.04320987654320988,56.12962962962963,0)" xlink:href="#aQ"/></g><path fill="#fff" d="M187 0l-14-72H61L19 0h-37l149-248h38L221 0h-34zm-19-99l-22-123L76-99h92" id="bh"/><g id="J"><use transform="matrix(0.04320987654320988,0,0,0.04320987654320988,0,0)" xlink:href="#bh"/><use transform="matrix(0.04320987654320988,0,0,0.04320987654320988,10.370370370370372,0)" xlink:href="#ax"/></g><path fill="#fff" d="M67-162c32-53 139-36 121 50C175-51 163 2 97 4 68 4 52-11 42-31 38 6 28 39 22 75H-9l50-265h29c-1 10 0 20-3 28zm89 36c0-26-10-43-35-43-54 0-67 50-69 103-1 29 14 45 42 46 53 0 62-58 62-106" id="bi"/><path fill="#fff" d="M89 0H52L20-190h33L74-25l89-165h34" id="bj"/><g id="K"><use transform="matrix(0.04320987654320988,0,0,0.04320987654320988,0,0)" xlink:href="#an"/><use transform="matrix(0.04320987654320988,0,0,0.04320987654320988,8.641975308641976,0)" xlink:href="#bi"/><use transform="matrix(0.04320987654320988,0,0,0.04320987654320988,17.283950617283953,0)" xlink:href="#bi"/><use transform="matrix(0.04320987654320988,0,0,0.04320987654320988,25.925925925925927,0)" xlink:href="#al"/><use transform="matrix(0.04320987654320988,0,0,0.04320987654320988,31.067901234567906,0)" xlink:href="#ar"/><use transform="matrix(0.04320987654320988,0,0,0.04320987654320988,39.70987654320988,0)" xlink:href="#bj"/><use transform="matrix(0.04320987654320988,0,0,0.04320987654320988,47.48765432098766,0)" xlink:href="#am"/><use transform="matrix(0.04320987654320988,0,0,0.04320987654320988,56.12962962962963,0)" xlink:href="#al"/></g><g id="L"><use transform="matrix(0.04320987654320988,0,0,0.04320987654320988,0,0)" xlink:href="#ay"/><use transform="matrix(0.04320987654320988,0,0,0.04320987654320988,8.641975308641976,0)" xlink:href="#am"/><use transform="matrix(0.04320987654320988,0,0,0.04320987654320988,17.283950617283953,0)" xlink:href="#ao"/><use transform="matrix(0.04320987654320988,0,0,0.04320987654320988,21.60493827160494,0)" xlink:href="#av"/></g><path fill="#fff" d="M44-68c0 29 11 47 38 47 30 0 42-19 51-41l28 9C148-21 126 4 82 4 31 4 10-29 12-85c3-77 74-140 146-93 12 8 15 23 18 40l-31 5c-1-22-13-36-36-36-52 0-65 49-65 101" id="bk"/><path fill="#fff" d="M6 0l50-261h32L37 0H6" id="bl"/><path fill="#fff" d="M198-190L69 30C53 58 25 83-20 72c4-11-1-27 19-22 33-1 43-29 59-52L20-190h32L79-34l84-156h35" id="bm"/><g id="M"><use transform="matrix(0.04320987654320988,0,0,0.04320987654320988,0,0)" xlink:href="#an"/><use transform="matrix(0.04320987654320988,0,0,0.04320987654320988,8.641975308641976,0)" xlink:href="#au"/><use transform="matrix(0.04320987654320988,0,0,0.04320987654320988,17.283950617283953,0)" xlink:href="#ao"/><use transform="matrix(0.04320987654320988,0,0,0.04320987654320988,21.60493827160494,0)" xlink:href="#ar"/><use transform="matrix(0.04320987654320988,0,0,0.04320987654320988,30.24691358024692,0)" xlink:href="#aq"/><use transform="matrix(0.04320987654320988,0,0,0.04320987654320988,43.16666666666667,0)" xlink:href="#an"/><use transform="matrix(0.04320987654320988,0,0,0.04320987654320988,51.808641975308646,0)" xlink:href="#ao"/><use transform="matrix(0.04320987654320988,0,0,0.04320987654320988,56.12962962962963,0)" xlink:href="#ap"/><use transform="matrix(0.04320987654320988,0,0,0.04320987654320988,59.543209876543216,0)" xlink:href="#bk"/><use transform="matrix(0.04320987654320988,0,0,0.04320987654320988,67.32098765432099,0)" xlink:href="#an"/><use transform="matrix(0.04320987654320988,0,0,0.04320987654320988,75.96296296296296,0)" xlink:href="#bl"/><use transform="matrix(0.04320987654320988,0,0,0.04320987654320988,79.37654320987654,0)" xlink:href="#bl"/><use transform="matrix(0.04320987654320988,0,0,0.04320987654320988,82.79012345679013,0)" xlink:href="#bm"/></g><path fill="#fff" d="M133-28C103 26-5 8 13-77c13-62 24-115 90-117 29-1 46 15 56 35l19-102h32L160 0h-30zM45-64c-2 27 10 43 35 43 54-1 69-50 69-103 0-29-15-46-42-46-53-1-58 58-62 106" id="bn"/><g id="N"><use transform="matrix(0.04320987654320988,0,0,0.04320987654320988,0,0)" xlink:href="#an"/><use transform="matrix(0.04320987654320988,0,0,0.04320987654320988,8.641975308641976,0)" xlink:href="#av"/><use transform="matrix(0.04320987654320988,0,0,0.04320987654320988,16.419753086419753,0)" xlink:href="#av"/><use transform="matrix(0.04320987654320988,0,0,0.04320987654320988,24.19753086419753,0)" xlink:href="#ap"/><use transform="matrix(0.04320987654320988,0,0,0.04320987654320988,27.611111111111114,0)" xlink:href="#ay"/><use transform="matrix(0.04320987654320988,0,0,0.04320987654320988,36.25308641975309,0)" xlink:href="#ax"/><use transform="matrix(0.04320987654320988,0,0,0.04320987654320988,44.89506172839506,0)" xlink:href="#am"/><use transform="matrix(0.04320987654320988,0,0,0.04320987654320988,53.537037037037045,0)" xlink:href="#bn"/></g><g id="O"><use transform="matrix(0.04320987654320988,0,0,0.04320987654320988,0,0)" xlink:href="#ao"/><use transform="matrix(0.04320987654320988,0,0,0.04320987654320988,4.320987654320988,0)" xlink:href="#ar"/></g><g id="P"><use transform="matrix(0.04320987654320988,0,0,0.04320987654320988,0,0)" xlink:href="#ao"/><use transform="matrix(0.04320987654320988,0,0,0.04320987654320988,4.320987654320988,0)" xlink:href="#ap"/><use transform="matrix(0.04320987654320988,0,0,0.04320987654320988,7.734567901234569,0)" xlink:href="#aq"/><use transform="matrix(0.04320987654320988,0,0,0.04320987654320988,20.654320987654323,0)" xlink:href="#am"/></g><g id="Q"><use transform="matrix(0.04320987654320988,0,0,0.04320987654320988,0,0)" xlink:href="#be"/><use transform="matrix(0.04320987654320988,0,0,0.04320987654320988,4.320987654320988,0)" xlink:href="#aj"/><use transform="matrix(0.04320987654320988,0,0,0.04320987654320988,12.962962962962964,0)" xlink:href="#aP"/></g><g id="R"><use transform="matrix(0.04320987654320988,0,0,0.04320987654320988,0,0)" xlink:href="#aP"/><use transform="matrix(0.04320987654320988,0,0,0.04320987654320988,5.1419753086419755,0)" xlink:href="#aO"/><use transform="matrix(0.04320987654320988,0,0,0.04320987654320988,13.783950617283953,0)" xlink:href="#aZ"/><use transform="matrix(0.04320987654320988,0,0,0.04320987654320988,22.425925925925934,0)" xlink:href="#ba"/><use transform="matrix(0.04320987654320988,0,0,0.04320987654320988,31.067901234567906,0)" xlink:href="#aO"/><use transform="matrix(0.04320987654320988,0,0,0.04320987654320988,39.70987654320988,0)" xlink:href="#aT"/><use transform="matrix(0.04320987654320988,0,0,0.04320987654320988,47.48765432098766,0)" xlink:href="#aU"/></g><g id="S"><use transform="matrix(0.04320987654320988,0,0,0.04320987654320988,0,0)" xlink:href="#aL"/><use transform="matrix(0.04320987654320988,0,0,0.04320987654320988,8.641975308641976,0)" xlink:href="#aV"/><use transform="matrix(0.04320987654320988,0,0,0.04320987654320988,17.283950617283953,0)" xlink:href="#aV"/><use transform="matrix(0.04320987654320988,0,0,0.04320987654320988,25.925925925925927,0)" xlink:href="#aP"/><use transform="matrix(0.04320987654320988,0,0,0.04320987654320988,31.067901234567906,0)" xlink:href="#aj"/><use transform="matrix(0.04320987654320988,0,0,0.04320987654320988,39.70987654320988,0)" xlink:href="#aW"/><use transform="matrix(0.04320987654320988,0,0,0.04320987654320988,47.48765432098766,0)" xlink:href="#aO"/><use transform="matrix(0.04320987654320988,0,0,0.04320987654320988,56.12962962962963,0)" xlink:href="#aP"/></g></defs></g></svg>