<svg xmlns="http://www.w3.org/2000/svg" xmlns:xlink="http://www.w3.org/1999/xlink" xmlns:lucid="lucid" width="1400" height="973.54"><g transform="translate(-179.9999999999999 -148.69014017356199)" lucid:page-tab-id="18_45"><path d="M0 0h1760v1360H0z" fill="#fff"/><path d="M712.2 180.7c0-6.64 5.36-12 12-12h311.6c6.64 0 12 5.36 12 12v50c0 6.62-5.36 12-12 12H724.2c-6.64 0-12-5.38-12-12z" stroke="#000" stroke-opacity="0" stroke-width="2" fill="#fff" fill-opacity="0"/><use xlink:href="#a" transform="matrix(1,0,0,1,717.1877459779555,173.69014017356199) translate(59.81481481481481 25.333333333333336)"/><use xlink:href="#b" transform="matrix(1,0,0,1,717.1877459779555,173.69014017356199) translate(128.85185185185185 25.333333333333336)"/><use xlink:href="#c" transform="matrix(1,0,0,1,717.1877459779555,173.69014017356199) translate(170.11111111111114 25.333333333333336)"/><use xlink:href="#d" transform="matrix(1,0,0,1,717.1877459779555,173.69014017356199) translate(105.33333333333331 57.333333333333336)"/><path d="M666.25 1017.67l.9 2.72 2.22 1.62 1.42.23h235.78v1H670.7l-1.73-.3-2.68-1.94-1.05-3.18v-98.87h1zm764.08 4.58v1h-157.1v-1z" fill="#666"/><path d="M665.74 918.45h.5v.52h-1v-.56zM1445.1 1022.75l-14.27 4.63v-9.27z" fill="#666"/><path d="M1446.7 1022.75l-16.37 5.32v-10.65zm-15.37 3.94l12.14-3.95-12.14-3.95z" fill="#666"/><use xlink:href="#e" transform="matrix(1,0,0,1,906.5840047839711,1013.4118004515067) translate(0 12.444444444444446)"/><use xlink:href="#f" transform="matrix(1,0,0,1,906.5840047839711,1013.4118004515067) translate(23.333333333333336 12.444444444444446)"/><use xlink:href="#g" transform="matrix(1,0,0,1,906.5840047839711,1013.4118004515067) translate(92.42592592592592 12.444444444444446)"/><use xlink:href="#h" transform="matrix(1,0,0,1,906.5840047839711,1013.4118004515067) translate(126.04320987654322 12.444444444444446)"/><use xlink:href="#i" transform="matrix(1,0,0,1,906.5840047839711,1013.4118004515067) translate(147.34567901234567 12.444444444444446)"/><use xlink:href="#j" transform="matrix(1,0,0,1,906.5840047839711,1013.4118004515067) translate(188.69753086419752 12.444444444444446)"/><use xlink:href="#k" transform="matrix(1,0,0,1,906.5840047839711,1013.4118004515067) translate(222.4012345679012 12.444444444444446)"/><use xlink:href="#l" transform="matrix(1,0,0,1,906.5840047839711,1013.4118004515067) translate(256.1049382716049 12.444444444444446)"/><use xlink:href="#m" transform="matrix(1,0,0,1,906.5840047839711,1013.4118004515067) translate(273.38888888888886 12.444444444444446)"/><use xlink:href="#n" transform="matrix(1,0,0,1,906.5840047839711,1013.4118004515067) translate(299.3148148148148 12.444444444444446)"/><path d="M277.9 373.1c0-2.76 2.25-5 5-5H429c2.76 0 5 2.24 5 5v82.18c0 2.76-2.24 5-5 5H282.9c-2.75 0-5-2.24-5-5z" stroke="#ff8839" stroke-width="2" fill="#ff8839"/><path d="M287.33 411.03h34.14V399.7s-3.3-5.67-10.04-7.48h-13.1c-6.28 1.94-11.1 8.32-11.1 8.32l.1 10.5z" stroke="#000" stroke-width="2" fill="#f4f6f7"/><path d="M287.33 411.03h34.14V399.7s-3.3-5.67-10.04-7.48h-13.1c-6.28 1.94-11.1 8.32-11.1 8.32l.1 10.5zM294.77 404.87v5.56M314.5 405v5.8" stroke="#000" stroke-width="2" fill="none"/><path d="M312.62 384.6c0-4.3-3.46-7.82-7.7-7.82s-7.67 3.5-7.67 7.83c0 4.34 3.43 7.87 7.67 7.87s7.7-3.53 7.7-7.86z" stroke="#000" stroke-width="2" fill="#020202"/><path d="M312.62 384.6c0-4.3-3.46-7.82-7.7-7.82s-7.67 3.5-7.67 7.83c0 4.34 3.43 7.87 7.67 7.87s7.7-3.53 7.7-7.86z" stroke="#000" stroke-width="2" fill="none"/><path d="M297.9 386.3s4-3.5 7.62-2.6c3.62.9 6.56-1 6.56-1 .34 2.44.06 5.42-2.07 8.07 0 0 1.55 1.1 1.55 2.18 0 1.1.18 2.7-1.42 4.33-1.6 1.63-7.8 1.8-9.56 0-1.78-1.8-1.78-2.64-1.78-3.85 0-1.2.82-1.8 1.77-2.78-1.54-.84-3.55-3.44-2.67-4.34z" stroke="#000" stroke-width="2" fill="#f0eff0"/><path d="M297.9 386.3s4-3.5 7.62-2.6c3.62.9 6.56-1 6.56-1 .34 2.44.06 5.42-2.07 8.07 0 0 1.55 1.1 1.55 2.18 0 1.1.18 2.7-1.42 4.33-1.6 1.63-7.8 1.8-9.56 0-1.78-1.8-1.78-2.64-1.78-3.85 0-1.2.82-1.8 1.77-2.78-1.54-.84-3.55-3.44-2.67-4.34z" stroke="#000" stroke-width="2" fill="none"/><use xlink:href="#o" transform="matrix(1,0,0,1,277.9113823223646,368.10545741494934) translate(50.72475308641976 38.894444444444446)"/><use xlink:href="#p" transform="matrix(1,0,0,1,277.9113823223646,368.10545741494934) translate(101.625987654321 38.894444444444446)"/><use xlink:href="#q" transform="matrix(1,0,0,1,277.9113823223646,368.10545741494934) translate(114.58895061728396 38.894444444444446)"/><use xlink:href="#r" transform="matrix(1,0,0,1,277.9113823223646,368.10545741494934) translate(17.863024691358028 57.56111111111112)"/><use xlink:href="#s" transform="matrix(1,0,0,1,277.9113823223646,368.10545741494934) translate(71.40067901234568 57.56111111111112)"/><path d="M685.9 503.3c0-2.75 2.23-5 5-5h146.06c2.76 0 5 2.25 5 5v82.2c0 2.75-2.24 5-5 5H690.9c-2.77 0-5-2.25-5-5z" stroke="#ff9e56" stroke-width="2" fill="#ff9e56"/><path d="M695.3 541.24h34.15V529.9s-3.3-5.66-10.04-7.47h-13.1c-6.27 1.94-11.1 8.32-11.1 8.32l.1 10.5z" stroke="#000" stroke-width="2" fill="#f4f6f7"/><path d="M695.3 541.24h34.15V529.9s-3.3-5.66-10.04-7.47h-13.1c-6.27 1.94-11.1 8.32-11.1 8.32l.1 10.5zM702.75 535.08v5.55M722.47 535.2v5.8" stroke="#000" stroke-width="2" fill="none"/><path d="M720.6 514.82c0-4.33-3.46-7.83-7.7-7.83s-7.67 3.5-7.67 7.82c0 4.33 3.43 7.85 7.67 7.85s7.7-3.52 7.7-7.85z" stroke="#000" stroke-width="2" fill="#020202"/><path d="M720.6 514.82c0-4.33-3.46-7.83-7.7-7.83s-7.67 3.5-7.67 7.82c0 4.33 3.43 7.85 7.67 7.85s7.7-3.52 7.7-7.85z" stroke="#000" stroke-width="2" fill="none"/><path d="M705.88 516.5s4-3.5 7.6-2.6c3.64.9 6.58-1 6.58-1 .34 2.45.06 5.43-2.07 8.08 0 0 1.53 1.1 1.53 2.18s.18 2.7-1.42 4.32c-1.6 1.64-7.8 1.82-9.56 0-1.77-1.8-1.77-2.63-1.77-3.84 0-1.2.83-1.8 1.77-2.78-1.53-.84-3.55-3.44-2.66-4.35z" stroke="#000" stroke-width="2" fill="#f0eff0"/><path d="M705.88 516.5s4-3.5 7.6-2.6c3.64.9 6.58-1 6.58-1 .34 2.45.06 5.43-2.07 8.08 0 0 1.53 1.1 1.53 2.18s.18 2.7-1.42 4.32c-1.6 1.64-7.8 1.82-9.56 0-1.77-1.8-1.77-2.63-1.77-3.84 0-1.2.83-1.8 1.77-2.78-1.53-.84-3.55-3.44-2.66-4.35z" stroke="#000" stroke-width="2" fill="none"/><use xlink:href="#t" transform="matrix(1,0,0,1,685.8907881940276,498.31338461754945) translate(66.66919753086421 30.175694444444446)"/><use xlink:href="#u" transform="matrix(1,0,0,1,685.8907881940276,498.31338461754945) translate(51.113641975308646 48.84236111111112)"/><use xlink:href="#v" transform="matrix(1,0,0,1,685.8907881940276,498.31338461754945) translate(88.27413580246913 48.84236111111112)"/><use xlink:href="#q" transform="matrix(1,0,0,1,685.8907881940276,498.31338461754945) translate(114.20006172839506 48.84236111111112)"/><use xlink:href="#w" transform="matrix(1,0,0,1,685.8907881940276,498.31338461754945) translate(41.793209876543216 67.50902777777779)"/><use xlink:href="#s" transform="matrix(1,0,0,1,685.8907881940276,498.31338461754945) translate(63.39814814814815 67.50902777777779)"/><path d="M635.06 535.48l1.83 2.78.16 1.27.93 2.72 2.3 1.5 1.06.15h27.15v1h-27.2l-1.36-.17-2.78-1.83-1.08-3.14-.15-1.15-1.5-2.3-2.7-.9h-43v-1h43.17z" fill="#666"/><path d="M588.76 535.4h-.56l.05-.5-.02-.5h.53zM683.27 544.4L669 549.04v-9.27z" fill="#666"/><path d="M684.9 544.4l-16.4 5.32v-10.64zm-15.4 3.95l12.15-3.95-12.14-3.95z" fill="#666"/><path d="M1506.7 1022.75c0 16.56-13.42 30-30 30-16.56 0-30-13.44-30-30 0-16.57 13.44-30 30-30 16.58 0 30 13.43 30 30z" stroke="#666" stroke-width="5" fill="#d2d3d5"/><path d="M1497.96 1022.75c0 11.73-9.5 21.25-21.25 21.25-11.73 0-21.24-9.52-21.24-21.25 0-11.74 9.5-21.25 21.25-21.25s21.26 9.5 21.26 21.25z" fill="#666"/><path d="M240 1102.23h-35c-2.76 0-5-2.24-5-5v-144.6h40z" fill="#6e757d"/><path d="M240 1102.23h1315c2.76 0 5-2.24 5-5v-144.6H240z" fill="none"/><path d="M240 952.62h-40V640.3h40z" fill="#6e757d"/><path d="M240 952.62h1320V640.3H240z" fill="none"/><path d="M200 952.62h1360" stroke="#b2b2b2" stroke-width="2" fill="none"/><path d="M240 640.3h-40V489.6h40z" fill="#6e757d"/><path d="M240 640.3h1320V489.6H240z" fill="none"/><path d="M200 640.3h1360" stroke="#b2b2b2" stroke-width="2" fill="none"/><path d="M200 489.6V345c0-2.76 2.24-5 5-5h35v149.6z" fill="#6e757d"/><path d="M240 340h1315c2.76 0 5 2.24 5 5v144.6H240z" fill="none"/><path d="M200 489.6h1360M240 1102.23V340M240 1102.23h-35c-2.76 0-5-2.24-5-5v-144.6m0 0V640.3m0 0V489.6m0 0V345c0-2.76 2.24-5 5-5h35m0 0h1315c2.76 0 5 2.24 5 5v144.6m0 463.02V640.3m0 0V489.6M240 1102.24h1315c2.76 0 5-2.24 5-5v-144.6" stroke="#b2b2b2" stroke-width="2" fill="none"/><use xlink:href="#x" transform="matrix(6.123233995736766e-17,-1,1,6.123233995736766e-17,199.99999999999994,489.6109349535368) translate(33.07407407407407 23.555555555555557)"/><use xlink:href="#y" transform="matrix(6.123233995736766e-17,-1,1,6.123233995736766e-17,199.99999999999994,640.2951401556859) translate(39.03086419753086 23.555555555555557)"/><path d="M587.74 534.9c0 16.56-13.43 30-30 30-16.56 0-30-13.44-30-30 0-16.58 13.44-30 30-30 16.57 0 30 13.42 30 30z" stroke="#666" fill="#ffeadb"/><path d="M584.74 534.9c0 14.9-12.08 27-27 27-14.9 0-27-12.1-27-27 0-14.92 12.1-27 27-27 14.92 0 27 12.08 27 27z" stroke="#666" fill="#ffeadb"/><path d="M577.74 534.9c0 11.03-8.95 20-20 20-11.04 0-20-8.97-20-20 0-11.06 8.96-20 20-20 11.05 0 20 8.94 20 20zm0 0h-4m1.32 10l-3.46-2m-3.86 9.3l-2-3.46m-8 6.15v-4m-10 1.3l2-3.46m-9.32-3.85l3.47-2m-6.16-8h4m-1.32-10l3.47 2m3.84-9.33l2 3.46m8-6.14v4m10-1.33l-2 3.46m9.32 3.86l-3.46 2m-13.86 8v-12m0 12h7" stroke="#666" fill="#fff"/><path d="M695.75 887.95c0 16.57-13.43 30-30 30s-30-13.43-30-30 13.43-30 30-30 30 13.43 30 30z" stroke="#666" fill="#ffeadb"/><path d="M692.75 887.95c0 14.9-12.1 27-27 27s-27-12.1-27-27 12.1-27 27-27 27 12.1 27 27z" stroke="#666" fill="#ffeadb"/><path d="M645.75 876.7h40v22.5h-40z" stroke="#666" fill="#fff"/><path d="M645.75 876.7l20 11.25 20-11.25" stroke="#666" fill="none"/><path d="M892.44 887.95c0 16.57-13.43 30-30 30-16.56 0-30-13.43-30-30s13.44-30 30-30c16.57 0 30 13.43 30 30z" stroke="#666" fill="#ffeadb"/><path d="M889.44 887.95c0 14.9-12.08 27-27 27-14.9 0-27-12.1-27-27s12.1-27 27-27c14.92 0 27 12.1 27 27z" stroke="#666" fill="#ffeadb"/><path d="M842.44 876.7h40v22.5h-40z" stroke="#666" fill="#fff"/><path d="M842.44 876.7l20 11.25 20-11.25M862.44 918.95v6.13c0 2.76 2.24 5 5 5h562.9" stroke="#666" fill="none"/><path d="M862.43 918.45h.5v.52h-1v-.56z" fill="#666"/><path d="M1445.1 930.08l-14.27 4.64v-9.27z" stroke="#666" fill="#666"/><g><use xlink:href="#e" transform="matrix(1,0,0,1,885.8671360285991,907.41373739327) translate(0 12.444444444444446)"/><use xlink:href="#z" transform="matrix(1,0,0,1,885.8671360285991,907.41373739327) translate(23.333333333333336 12.444444444444446)"/><use xlink:href="#g" transform="matrix(1,0,0,1,885.8671360285991,907.41373739327) translate(82.87654320987654 12.444444444444446)"/><use xlink:href="#h" transform="matrix(1,0,0,1,885.8671360285991,907.41373739327) translate(116.49382716049382 12.444444444444446)"/><use xlink:href="#i" transform="matrix(1,0,0,1,885.8671360285991,907.41373739327) translate(137.7962962962963 12.444444444444446)"/><use xlink:href="#j" transform="matrix(1,0,0,1,885.8671360285991,907.41373739327) translate(179.14814814814815 12.444444444444446)"/><use xlink:href="#k" transform="matrix(1,0,0,1,885.8671360285991,907.41373739327) translate(212.85185185185185 12.444444444444446)"/><use xlink:href="#l" transform="matrix(1,0,0,1,885.8671360285991,907.41373739327) translate(246.55555555555554 12.444444444444446)"/><use xlink:href="#m" transform="matrix(1,0,0,1,885.8671360285991,907.41373739327) translate(263.8395061728395 12.444444444444446)"/><use xlink:href="#n" transform="matrix(1,0,0,1,885.8671360285991,907.41373739327) translate(289.7654320987654 12.444444444444446)"/></g><path d="M1506.7 930.08c0 16.57-13.42 30-30 30-16.56 0-30-13.43-30-30s13.44-30 30-30c16.58 0 30 13.43 30 30z" stroke="#666" stroke-width="5" fill="#d2d3d5"/><path d="M1497.96 930.08c0 11.74-9.5 21.25-21.25 21.25-11.73 0-21.24-9.5-21.24-21.25 0-11.74 9.5-21.25 21.25-21.25s21.26 9.5 21.26 21.25z" fill="#666"/><path d="M748.44 670.5c2.2-1.66 5.8-1.66 8 0l72 54c2.2 1.65 2.2 4.34 0 6l-72 54c-2.2 1.65-5.8 1.65-8 0l-72-54c-2.2-1.66-2.2-4.35 0-6z" stroke="#666" fill="#fff"/><g><use xlink:href="#A" transform="matrix(1,0,0,1,677.4439602164695,672.4942968715332) translate(6.793209876543202 39.44444444444444)"/><use xlink:href="#B" transform="matrix(1,0,0,1,677.4439602164695,672.4942968715332) translate(72.3858024691358 39.44444444444444)"/><use xlink:href="#C" transform="matrix(1,0,0,1,677.4439602164695,672.4942968715332) translate(130.24382716049382 39.44444444444444)"/><use xlink:href="#D" transform="matrix(1,0,0,1,677.4439602164695,672.4942968715332) translate(3.790123456790127 58.111111111111114)"/><use xlink:href="#E" transform="matrix(1,0,0,1,677.4439602164695,672.4942968715332) translate(64.24074074074075 58.111111111111114)"/><use xlink:href="#F" transform="matrix(1,0,0,1,677.4439602164695,672.4942968715332) translate(82.34567901234568 58.111111111111114)"/><use xlink:href="#G" transform="matrix(1,0,0,1,677.4439602164695,672.4942968715332) translate(124.60493827160494 58.111111111111114)"/><use xlink:href="#H" transform="matrix(1,0,0,1,677.4439602164695,672.4942968715332) translate(49.09567901234568 76.77777777777779)"/></g><path d="M754.37 592v37.15c0 .53-.43.97-.96.97-.52 0-.96.43-.96.96v21.28" stroke="#666" fill="none"/><path d="M754.87 592h-1v-.5h1z" fill="#666"/><path d="M752.44 667.13l-4.63-14.27h9.28z" stroke="#666" fill="#666"/><path d="M385.94 611.2c0 16.56-13.43 30-30 30-16.56 0-30-13.44-30-30 0-16.57 13.44-30 30-30 16.57 0 30 13.43 30 30z" stroke="#666" fill="#ffeadb"/><path d="M382.94 611.2c0 14.9-12.08 27-27 27-14.9 0-27-12.1-27-27 0-14.92 12.1-27 27-27 14.92 0 27 12.08 27 27z" stroke="#666" fill="#ffeadb"/><path d="M335.94 599.95h40v22.5h-40z" stroke="#666" fill="#fff"/><path d="M335.94 599.95l20 11.25 20-11.25" stroke="#666" fill="none"/><path d="M457.32 604.98l-.28 1.74-1.96 2.68-3.18 1.04h-65v-1h64.84l2.73-.9 1.62-2.22.22-1.42v-21.16h1zm53.54-69.6h-49l-1.42.24-2.23 1.62-.88 2.73v25.1h-1v-25.26l1.04-3.17 2.68-1.96 1.74-.28h49.08z" fill="#666"/><path d="M386.9 610.44h-.48l-.04-1h.53zM525.63 534.9l-14.27 4.62v-9.27z" fill="#666"/><path d="M527.24 534.9l-16.38 5.3v-10.64zm-15.38 3.93L524 534.9l-12.14-3.96z" fill="#666"/><g><use xlink:href="#e" transform="matrix(1,0,0,1,286.29439661776956,565.0782041945798) translate(0 12.444444444444446)"/><use xlink:href="#i" transform="matrix(1,0,0,1,286.29439661776956,565.0782041945798) translate(23.333333333333336 12.444444444444446)"/><use xlink:href="#I" transform="matrix(1,0,0,1,286.29439661776956,565.0782041945798) translate(64.68518518518519 12.444444444444446)"/><use xlink:href="#m" transform="matrix(1,0,0,1,286.29439661776956,565.0782041945798) translate(87.11111111111111 12.444444444444446)"/><use xlink:href="#J" transform="matrix(1,0,0,1,286.29439661776956,565.0782041945798) translate(113.03703703703704 12.444444444444446)"/><use xlink:href="#j" transform="matrix(1,0,0,1,286.29439661776956,565.0782041945798) translate(169.16666666666669 12.444444444444446)"/><use xlink:href="#k" transform="matrix(1,0,0,1,286.29439661776956,565.0782041945798) translate(202.87037037037038 12.444444444444446)"/><use xlink:href="#l" transform="matrix(1,0,0,1,286.29439661776956,565.0782041945798) translate(236.57407407407408 12.444444444444446)"/><use xlink:href="#m" transform="matrix(1,0,0,1,286.29439661776956,565.0782041945798) translate(253.85802469135803 12.444444444444446)"/><use xlink:href="#K" transform="matrix(1,0,0,1,286.29439661776956,565.0782041945798) translate(279.78395061728395 12.444444444444446)"/></g><path d="M356.44 564.3h-1V461.8h1zM356.44 461.8h-1v-.52h1zM360.5 565.08h-9.1l-.1-.27h9.28z" fill="#666"/><path d="M361.02 565.08h-10.15l-.25-.77h10.65zM688.7 824.5h-33.32l-2.72.88-1.63 2.23-.23 1.43v16.32h-1v-16.4l.28-1.74 1.96-2.67 3.18-1.04h33.47zm64.24-5.43l-1.04 3.18-2.68 1.96-1.74.3h-33.43v-1h33.35l1.43-.24 2.22-1.63.9-2.72v-32.16h1zM752.94 786.76h-1v-.6l.5.08.5-.07zM650.3 860.12l-4.63-14.27h9.27z" fill="#666"/><path d="M650.3 861.73l-5.32-16.38h10.64zm-3.95-15.38l3.95 12.15 3.95-12.15z" fill="#666"/><g><use xlink:href="#L" transform="matrix(1,0,0,1,688.690296232634,814.6550481288623) translate(0 12.444444444444446)"/></g><path d="M857.52 821.35l3.2 1.04 1.94 2.67.28 1.74v14.27h-1V826.9l-.23-1.43-1.6-2.23-2.74-.9h-40v-1zm-103.7-1.86l2.24 1.62 1.42.23h40.05v1H757.4l-1.73-.28-2.7-1.96-1.03-3.17v-30.2h1v30.04z" fill="#666"/><path d="M752.94 786.76h-1v-.6l.5.08.5-.07zM862.44 855.83l-4.63-14.26h9.28z" fill="#666"/><path d="M862.44 857.45l-5.32-16.38h10.65zm-3.94-15.38l3.94 12.15 3.95-12.15z" fill="#666"/><g><use xlink:href="#M" transform="matrix(1,0,0,1,797.527293549803,812.5141712411911) translate(0 12.444444444444446)"/></g><defs><path fill="#b2b2b2" d="M136-208V0H84v-208H4v-40h212v40h-80" id="N"/><path fill="#b2b2b2" d="M25-224v-37h50v37H25zM25 0v-190h50V0H25" id="O"/><path fill="#b2b2b2" d="M220-157c-53 9-28 100-34 157h-49v-107c1-27-5-49-29-50C55-147 81-57 75 0H25l-1-190h47c2 12-1 28 3 38 10-53 101-56 108 0 13-22 24-43 59-42 82 1 51 116 57 194h-49v-107c-1-25-5-48-29-50" id="P"/><path fill="#b2b2b2" d="M185-48c-13 30-37 53-82 52C43 2 14-33 14-96s30-98 90-98c62 0 83 45 84 108H66c0 31 8 55 39 56 18 0 30-7 34-22zm-45-69c5-46-57-63-70-21-2 6-4 13-4 21h74" id="Q"/><g id="a"><use transform="matrix(0.07407407407407408,0,0,0.07407407407407408,0,0)" xlink:href="#N"/><use transform="matrix(0.07407407407407408,0,0,0.07407407407407408,15.703703703703706,0)" xlink:href="#O"/><use transform="matrix(0.07407407407407408,0,0,0.07407407407407408,23.111111111111114,0)" xlink:href="#P"/><use transform="matrix(0.07407407407407408,0,0,0.07407407407407408,46.814814814814824,0)" xlink:href="#Q"/></g><path fill="#b2b2b2" d="M110-194c64 0 96 36 96 99 0 64-35 99-97 99-61 0-95-36-95-99 0-62 34-99 96-99zm-1 164c35 0 45-28 45-65 0-40-10-65-43-65-34 0-45 26-45 65 0 36 10 65 43 65" id="R"/><path fill="#b2b2b2" d="M121-226c-27-7-43 5-38 36h38v33H83V0H34v-157H6v-33h28c-9-59 32-81 87-68v32" id="S"/><g id="b"><use transform="matrix(0.07407407407407408,0,0,0.07407407407407408,0,0)" xlink:href="#R"/><use transform="matrix(0.07407407407407408,0,0,0.07407407407407408,16.222222222222225,0)" xlink:href="#S"/><use transform="matrix(0.07407407407407408,0,0,0.07407407407407408,25.03703703703704,0)" xlink:href="#S"/></g><path fill="#b2b2b2" d="M135-150c-39-12-60 13-60 57V0H25l-1-190h47c2 13-1 29 3 40 6-28 27-53 61-41v41" id="T"/><path fill="#b2b2b2" d="M84 4C32 4 15-41 15-95c0-55 18-99 73-99 29 0 47 12 58 34l2-30h48l-1 265h-49V-32C136-9 114 4 84 4zm21-34c32 0 41-29 41-66 0-36-9-64-40-64-33 0-39 30-40 65 0 43 13 65 39 65" id="U"/><path fill="#b2b2b2" d="M85 4C-2 5 27-109 22-190h50c7 57-23 150 33 157 60-5 35-97 40-157h50l1 190h-47c-2-12 1-28-3-38-12 25-28 42-61 42" id="V"/><path fill="#b2b2b2" d="M137-138c1-29-70-34-71-4 15 46 118 7 119 86 1 83-164 76-172 9l43-7c4 19 20 25 44 25 33 8 57-30 24-41C81-84 22-81 20-136c-2-80 154-74 161-7" id="W"/><path fill="#b2b2b2" d="M115-3C79 11 28 4 28-45v-112H4v-33h27l15-45h31v45h36v33H77v99c-1 23 16 31 38 25v30" id="X"/><g id="c"><use transform="matrix(0.07407407407407408,0,0,0.07407407407407408,0,0)" xlink:href="#T"/><use transform="matrix(0.07407407407407408,0,0,0.07407407407407408,10.370370370370372,0)" xlink:href="#Q"/><use transform="matrix(0.07407407407407408,0,0,0.07407407407407408,25.185185185185187,0)" xlink:href="#U"/><use transform="matrix(0.07407407407407408,0,0,0.07407407407407408,41.40740740740742,0)" xlink:href="#V"/><use transform="matrix(0.07407407407407408,0,0,0.07407407407407408,57.62962962962965,0)" xlink:href="#Q"/><use transform="matrix(0.07407407407407408,0,0,0.07407407407407408,72.44444444444446,0)" xlink:href="#W"/><use transform="matrix(0.07407407407407408,0,0,0.07407407407407408,87.25925925925927,0)" xlink:href="#X"/></g><path fill="#b2b2b2" d="M231 0h-52l-39-155L100 0H48L-1-190h46L77-45c9-52 24-97 36-145h53l37 145 32-145h46" id="Y"/><path fill="#b2b2b2" d="M147 0L96-86 75-71V0H25v-261h50v150l67-79h53l-66 74L201 0h-54" id="Z"/><path fill="#b2b2b2" d="M25 0v-261h50V0H25" id="aa"/><g id="d"><use transform="matrix(0.07407407407407408,0,0,0.07407407407407408,0,0)" xlink:href="#Y"/><use transform="matrix(0.07407407407407408,0,0,0.07407407407407408,20.740740740740744,0)" xlink:href="#R"/><use transform="matrix(0.07407407407407408,0,0,0.07407407407407408,36.96296296296297,0)" xlink:href="#T"/><use transform="matrix(0.07407407407407408,0,0,0.07407407407407408,47.33333333333334,0)" xlink:href="#Z"/><use transform="matrix(0.07407407407407408,0,0,0.07407407407407408,62.14814814814816,0)" xlink:href="#S"/><use transform="matrix(0.07407407407407408,0,0,0.07407407407407408,70.96296296296298,0)" xlink:href="#aa"/><use transform="matrix(0.07407407407407408,0,0,0.07407407407407408,78.37037037037038,0)" xlink:href="#R"/><use transform="matrix(0.07407407407407408,0,0,0.07407407407407408,94.59259259259261,0)" xlink:href="#Y"/></g><path fill="#666" d="M205 0l-28-72H64L36 0H1l101-248h38L239 0h-34zm-38-99l-47-123c-12 45-31 82-46 123h93" id="ab"/><path fill="#666" d="M117-194c89-4 53 116 60 194h-32v-121c0-31-8-49-39-48C34-167 62-67 57 0H25l-1-190h30c1 10-1 24 2 32 11-22 29-35 61-36" id="ac"/><g id="e"><use transform="matrix(0.04320987654320988,0,0,0.04320987654320988,0,0)" xlink:href="#ab"/><use transform="matrix(0.04320987654320988,0,0,0.04320987654320988,10.370370370370372,0)" xlink:href="#ac"/></g><path fill="#666" d="M141-36C126-15 110 5 73 4 37 3 15-17 15-53c-1-64 63-63 125-63 3-35-9-54-41-54-24 1-41 7-42 31l-33-3c5-37 33-52 76-52 45 0 72 20 72 64v82c-1 20 7 32 28 27v20c-31 9-61-2-59-35zM48-53c0 20 12 33 32 33 41-3 63-29 60-74-43 2-92-5-92 41" id="ad"/><path fill="#666" d="M115-194c55 1 70 41 70 98S169 2 115 4C84 4 66-9 55-30l1 105H24l-1-265h31l2 30c10-21 28-34 59-34zm-8 174c40 0 45-34 45-75s-6-73-45-74c-42 0-51 32-51 76 0 43 10 73 51 73" id="ae"/><path fill="#666" d="M114-163C36-179 61-72 57 0H25l-1-190h30c1 12-1 29 2 39 6-27 23-49 58-41v29" id="af"/><path fill="#666" d="M100-194c62-1 85 37 85 99 1 63-27 99-86 99S16-35 15-95c0-66 28-99 85-99zM99-20c44 1 53-31 53-75 0-43-8-75-51-75s-53 32-53 75 10 74 51 75" id="ag"/><path fill="#666" d="M108 0H70L1-190h34L89-25l56-165h34" id="ah"/><path fill="#666" d="M100-194c63 0 86 42 84 106H49c0 40 14 67 53 68 26 1 43-12 49-29l28 8c-11 28-37 45-77 45C44 4 14-33 15-96c1-61 26-98 85-98zm52 81c6-60-76-77-97-28-3 7-6 17-6 28h103" id="ai"/><path fill="#666" d="M85-194c31 0 48 13 60 33l-1-100h32l1 261h-30c-2-10 0-23-3-31C134-8 116 4 85 4 32 4 16-35 15-94c0-66 23-100 70-100zm9 24c-40 0-46 34-46 75 0 40 6 74 45 74 42 0 51-32 51-76 0-42-9-74-50-73" id="aj"/><g id="f"><use transform="matrix(0.04320987654320988,0,0,0.04320987654320988,0,0)" xlink:href="#ad"/><use transform="matrix(0.04320987654320988,0,0,0.04320987654320988,8.641975308641976,0)" xlink:href="#ae"/><use transform="matrix(0.04320987654320988,0,0,0.04320987654320988,17.283950617283953,0)" xlink:href="#ae"/><use transform="matrix(0.04320987654320988,0,0,0.04320987654320988,25.925925925925927,0)" xlink:href="#af"/><use transform="matrix(0.04320987654320988,0,0,0.04320987654320988,31.067901234567906,0)" xlink:href="#ag"/><use transform="matrix(0.04320987654320988,0,0,0.04320987654320988,39.70987654320988,0)" xlink:href="#ah"/><use transform="matrix(0.04320987654320988,0,0,0.04320987654320988,47.48765432098766,0)" xlink:href="#ai"/><use transform="matrix(0.04320987654320988,0,0,0.04320987654320988,56.12962962962963,0)" xlink:href="#aj"/></g><path fill="#666" d="M59-47c-2 24 18 29 38 22v24C64 9 27 4 27-40v-127H5v-23h24l9-43h21v43h35v23H59v120" id="ak"/><path fill="#666" d="M24-231v-30h32v30H24zM24 0v-190h32V0H24" id="al"/><path fill="#666" d="M210-169c-67 3-38 105-44 169h-31v-121c0-29-5-50-35-48C34-165 62-65 56 0H25l-1-190h30c1 10-1 24 2 32 10-44 99-50 107 0 11-21 27-35 58-36 85-2 47 119 55 194h-31v-121c0-29-5-49-35-48" id="am"/><g id="g"><use transform="matrix(0.04320987654320988,0,0,0.04320987654320988,0,0)" xlink:href="#ak"/><use transform="matrix(0.04320987654320988,0,0,0.04320987654320988,4.320987654320988,0)" xlink:href="#al"/><use transform="matrix(0.04320987654320988,0,0,0.04320987654320988,7.734567901234569,0)" xlink:href="#am"/><use transform="matrix(0.04320987654320988,0,0,0.04320987654320988,20.654320987654323,0)" xlink:href="#ai"/></g><path fill="#666" d="M101-234c-31-9-42 10-38 44h38v23H63V0H32v-167H5v-23h27c-7-52 17-82 69-68v24" id="an"/><g id="h"><use transform="matrix(0.04320987654320988,0,0,0.04320987654320988,0,0)" xlink:href="#ag"/><use transform="matrix(0.04320987654320988,0,0,0.04320987654320988,8.641975308641976,0)" xlink:href="#an"/><use transform="matrix(0.04320987654320988,0,0,0.04320987654320988,12.660493827160492,0)" xlink:href="#an"/></g><path fill="#666" d="M24 0v-261h32V0H24" id="ao"/><g id="i"><use transform="matrix(0.04320987654320988,0,0,0.04320987654320988,0,0)" xlink:href="#ai"/><use transform="matrix(0.04320987654320988,0,0,0.04320987654320988,8.641975308641976,0)" xlink:href="#am"/><use transform="matrix(0.04320987654320988,0,0,0.04320987654320988,21.56172839506173,0)" xlink:href="#ad"/><use transform="matrix(0.04320987654320988,0,0,0.04320987654320988,30.203703703703713,0)" xlink:href="#al"/><use transform="matrix(0.04320987654320988,0,0,0.04320987654320988,33.61728395061729,0)" xlink:href="#ao"/></g><path fill="#666" d="M177-190C167-65 218 103 67 71c-23-6-38-20-44-43l32-5c15 47 100 32 89-28v-30C133-14 115 1 83 1 29 1 15-40 15-95c0-56 16-97 71-98 29-1 48 16 59 35 1-10 0-23 2-32h30zM94-22c36 0 50-32 50-73 0-42-14-75-50-75-39 0-46 34-46 75s6 73 46 73" id="ap"/><path fill="#666" d="M135-143c-3-34-86-38-87 0 15 53 115 12 119 90S17 21 10-45l28-5c4 36 97 45 98 0-10-56-113-15-118-90-4-57 82-63 122-42 12 7 21 19 24 35" id="aq"/><g id="j"><use transform="matrix(0.04320987654320988,0,0,0.04320987654320988,0,0)" xlink:href="#ap"/><use transform="matrix(0.04320987654320988,0,0,0.04320987654320988,8.641975308641976,0)" xlink:href="#ai"/><use transform="matrix(0.04320987654320988,0,0,0.04320987654320988,17.283950617283953,0)" xlink:href="#ak"/><use transform="matrix(0.04320987654320988,0,0,0.04320987654320988,21.60493827160494,0)" xlink:href="#aq"/></g><g id="k"><use transform="matrix(0.04320987654320988,0,0,0.04320987654320988,0,0)" xlink:href="#aq"/><use transform="matrix(0.04320987654320988,0,0,0.04320987654320988,7.777777777777779,0)" xlink:href="#ai"/><use transform="matrix(0.04320987654320988,0,0,0.04320987654320988,16.419753086419753,0)" xlink:href="#ac"/><use transform="matrix(0.04320987654320988,0,0,0.04320987654320988,25.061728395061728,0)" xlink:href="#ak"/></g><g id="l"><use transform="matrix(0.04320987654320988,0,0,0.04320987654320988,0,0)" xlink:href="#ak"/><use transform="matrix(0.04320987654320988,0,0,0.04320987654320988,4.320987654320988,0)" xlink:href="#ag"/></g><path fill="#666" d="M106-169C34-169 62-67 57 0H25v-261h32l-1 103c12-21 28-36 61-36 89 0 53 116 60 194h-32v-121c2-32-8-49-39-48" id="ar"/><g id="m"><use transform="matrix(0.04320987654320988,0,0,0.04320987654320988,0,0)" xlink:href="#ak"/><use transform="matrix(0.04320987654320988,0,0,0.04320987654320988,4.320987654320988,0)" xlink:href="#ar"/><use transform="matrix(0.04320987654320988,0,0,0.04320987654320988,12.962962962962964,0)" xlink:href="#ai"/></g><path fill="#666" d="M179-190L93 31C79 59 56 82 12 73V49c39 6 53-20 64-50L1-190h34L92-34l54-156h33" id="as"/><g id="n"><use transform="matrix(0.04320987654320988,0,0,0.04320987654320988,0,0)" xlink:href="#ai"/><use transform="matrix(0.04320987654320988,0,0,0.04320987654320988,8.641975308641976,0)" xlink:href="#am"/><use transform="matrix(0.04320987654320988,0,0,0.04320987654320988,21.56172839506173,0)" xlink:href="#ae"/><use transform="matrix(0.04320987654320988,0,0,0.04320987654320988,30.203703703703713,0)" xlink:href="#ao"/><use transform="matrix(0.04320987654320988,0,0,0.04320987654320988,33.61728395061729,0)" xlink:href="#ag"/><use transform="matrix(0.04320987654320988,0,0,0.04320987654320988,42.25925925925927,0)" xlink:href="#as"/><use transform="matrix(0.04320987654320988,0,0,0.04320987654320988,50.037037037037045,0)" xlink:href="#ai"/><use transform="matrix(0.04320987654320988,0,0,0.04320987654320988,58.67901234567902,0)" xlink:href="#ai"/></g><path fill="#fff" d="M125-24c46 0 70-25 89-51l25 16C214-24 183 4 123 4 8 4-5-146 60-208c32-50 158-61 191-5 5 7 9 14 11 22l-32 10c-9-28-33-43-69-43-74 0-108 51-108 125 0 46 24 75 72 75" id="at"/><path fill="#fff" d="M66-151c12-25 30-51 66-40l-6 26C45-176 58-65 38 0H6l36-190h30" id="au"/><path fill="#fff" d="M111-194c62-3 86 47 72 106H45c-7 38 6 69 45 68 27-1 43-14 53-32l24 11C152-15 129 4 87 4 38 3 12-23 12-71c0-70 32-119 99-123zm44 81c14-66-71-72-95-28-4 8-8 17-11 28h106" id="av"/><path fill="#fff" d="M165-48c-4 18 1 34 23 27l-3 20c-29 8-62 0-52-35h-2C116-14 99 4 63 4 30 4 8-16 8-49c0-68 71-67 138-67 10-26 0-56-31-54-26 1-42 9-47 31l-32-5c8-67 160-71 144 15-5 28-9 54-15 81zM42-50c3 52 80 24 89-6 7-12 7-24 11-38-47 1-103-4-100 44" id="aw"/><path fill="#fff" d="M51-54c-9 22 5 41 31 30L79-1C43 14 10-4 19-52l22-115H19l5-23h22l19-43h21l-9 43h35l-4 23H73" id="ax"/><g id="o"><use transform="matrix(0.04320987654320988,0,0,0.04320987654320988,0,0)" xlink:href="#at"/><use transform="matrix(0.04320987654320988,0,0,0.04320987654320988,11.19135802469136,0)" xlink:href="#au"/><use transform="matrix(0.04320987654320988,0,0,0.04320987654320988,16.333333333333336,0)" xlink:href="#av"/><use transform="matrix(0.04320987654320988,0,0,0.04320987654320988,24.97530864197531,0)" xlink:href="#aw"/><use transform="matrix(0.04320987654320988,0,0,0.04320987654320988,33.617283950617285,0)" xlink:href="#ax"/><use transform="matrix(0.04320987654320988,0,0,0.04320987654320988,37.93827160493827,0)" xlink:href="#av"/></g><use transform="matrix(0.04320987654320988,0,0,0.04320987654320988,0,0)" xlink:href="#aw" id="p"/><path fill="#fff" d="M50-231l6-30h32l-6 30H50zM6 0l37-190h31L37 0H6" id="ay"/><path fill="#fff" d="M248-111c6-24 9-61-24-58-72 9-57 108-77 169h-31l26-142c3-37-50-30-64-10C52-115 50-51 37 0H6l36-190h30c-1 10-6 24-4 32 13-43 101-52 105 5 13-22 29-41 61-41 90 0 28 129 23 194h-31" id="az"/><g id="q"><use transform="matrix(0.04320987654320988,0,0,0.04320987654320988,0,0)" xlink:href="#ax"/><use transform="matrix(0.04320987654320988,0,0,0.04320987654320988,4.320987654320988,0)" xlink:href="#ay"/><use transform="matrix(0.04320987654320988,0,0,0.04320987654320988,7.734567901234569,0)" xlink:href="#az"/><use transform="matrix(0.04320987654320988,0,0,0.04320987654320988,20.654320987654323,0)" xlink:href="#av"/></g><path fill="#fff" d="M30-147c31-64 166-65 159 27C183-49 158 1 86 4 9 8 1-88 30-147zM88-20c53 0 68-48 68-100 0-31-11-51-44-50-52 1-68 46-68 97 0 32 13 53 44 53" id="aA"/><path fill="#fff" d="M76-167L44 0H12l33-167H18l4-23h27c3-47 25-81 82-69l-4 24c-35-8-44 15-46 45h37l-5 23H76" id="aB"/><g id="r"><use transform="matrix(0.04320987654320988,0,0,0.04320987654320988,0,0)" xlink:href="#aA"/><use transform="matrix(0.04320987654320988,0,0,0.04320987654320988,8.641975308641976,0)" xlink:href="#aB"/><use transform="matrix(0.04320987654320988,0,0,0.04320987654320988,12.962962962962964,0)" xlink:href="#aB"/></g><path fill="#fff" d="M133-28C103 26-5 8 13-77c13-62 24-115 90-117 29-1 46 15 56 35 2-12 6-24 8-34h31L144 75h-31zM45-64c-2 27 10 43 35 43 54-1 69-50 69-103 0-29-15-46-42-46-53-1-58 58-62 106" id="aC"/><path fill="#fff" d="M67 3c-93-2-31-127-26-193h32L48-50c-3 39 53 32 70 12 30-34 30-101 43-152h32L157 0h-30c1-10 6-24 4-33-14 20-29 37-64 36" id="aD"/><path fill="#fff" d="M55-144c13 50 104 24 104 88C159 21 15 23 1-39l26-10c6 40 102 42 102-4-13-50-104-23-104-87 0-71 143-71 148-8l-29 4c-5-35-85-37-89 0" id="aE"/><g id="s"><use transform="matrix(0.04320987654320988,0,0,0.04320987654320988,0,0)" xlink:href="#au"/><use transform="matrix(0.04320987654320988,0,0,0.04320987654320988,5.1419753086419755,0)" xlink:href="#av"/><use transform="matrix(0.04320987654320988,0,0,0.04320987654320988,13.783950617283953,0)" xlink:href="#aC"/><use transform="matrix(0.04320987654320988,0,0,0.04320987654320988,22.425925925925934,0)" xlink:href="#aD"/><use transform="matrix(0.04320987654320988,0,0,0.04320987654320988,31.067901234567906,0)" xlink:href="#av"/><use transform="matrix(0.04320987654320988,0,0,0.04320987654320988,39.70987654320988,0)" xlink:href="#aE"/><use transform="matrix(0.04320987654320988,0,0,0.04320987654320988,47.48765432098766,0)" xlink:href="#ax"/></g><path fill="#fff" d="M222 0l43-216c-8 16-17 34-26 49L143 0h-22L81-216 41 0H11l48-248h42l38 208 116-208h45L252 0h-30" id="aF"/><path fill="#fff" d="M67-158c22-48 132-52 116 29L158 0h-32l25-140c3-38-53-32-70-12C52-117 51-52 38 0H6l36-190h30" id="aG"/><path fill="#fff" d="M103-194c29 0 47 14 56 36 2-11 5-23 8-32h30L160-5C157 61 82 97 21 62 9 55 4 45 1 30l28-7c7 42 83 31 92-3 4-16 9-38 13-55-13 20-29 36-62 36-40 0-60-25-60-64 0-71 23-131 91-131zm4 24c-53 0-58 54-61 104-2 27 10 44 36 44 49 0 65-50 67-102 1-29-15-46-42-46" id="aH"/><g id="t"><use transform="matrix(0.04320987654320988,0,0,0.04320987654320988,0,0)" xlink:href="#aF"/><use transform="matrix(0.04320987654320988,0,0,0.04320987654320988,12.919753086419755,0)" xlink:href="#aw"/><use transform="matrix(0.04320987654320988,0,0,0.04320987654320988,21.56172839506173,0)" xlink:href="#aG"/><use transform="matrix(0.04320987654320988,0,0,0.04320987654320988,30.203703703703713,0)" xlink:href="#aw"/><use transform="matrix(0.04320987654320988,0,0,0.04320987654320988,38.845679012345684,0)" xlink:href="#aH"/><use transform="matrix(0.04320987654320988,0,0,0.04320987654320988,47.48765432098766,0)" xlink:href="#av"/><use transform="matrix(0.04320987654320988,0,0,0.04320987654320988,56.12962962962963,0)" xlink:href="#au"/></g><g id="u"><use transform="matrix(0.04320987654320988,0,0,0.04320987654320988,0,0)" xlink:href="#aE"/><use transform="matrix(0.04320987654320988,0,0,0.04320987654320988,7.777777777777779,0)" xlink:href="#av"/><use transform="matrix(0.04320987654320988,0,0,0.04320987654320988,16.419753086419753,0)" xlink:href="#av"/><use transform="matrix(0.04320987654320988,0,0,0.04320987654320988,25.061728395061728,0)" xlink:href="#aE"/></g><path fill="#fff" d="M67-158c15-20 31-36 64-36 94 0 33 127 27 194h-32l25-140c3-38-53-32-70-12C52-117 51-51 37 0H6l51-261h31" id="aI"/><g id="v"><use transform="matrix(0.04320987654320988,0,0,0.04320987654320988,0,0)" xlink:href="#ax"/><use transform="matrix(0.04320987654320988,0,0,0.04320987654320988,4.320987654320988,0)" xlink:href="#aI"/><use transform="matrix(0.04320987654320988,0,0,0.04320987654320988,12.962962962962964,0)" xlink:href="#av"/></g><g id="w"><use transform="matrix(0.04320987654320988,0,0,0.04320987654320988,0,0)" xlink:href="#aA"/><use transform="matrix(0.04320987654320988,0,0,0.04320987654320988,8.641975308641976,0)" xlink:href="#aB"/><use transform="matrix(0.04320987654320988,0,0,0.04320987654320988,12.962962962962964,0)" xlink:href="#aB"/></g><path fill="#fff" d="M6 0l48-248h195l-8 40H98l-12 63h132l-7 40H79L66-40h150l-8 40H6" id="aJ"/><path fill="#fff" d="M255-194c90 0 29 129 24 194h-49l25-136c-7-39-53-14-60 9-12 38-18 85-28 127h-49l25-136c2-29-39-23-50-7C69-108 68-47 56 0H6l36-190h48c-1 10-6 24-4 32 12-20 27-36 57-36s46 15 50 41c14-21 29-41 62-41" id="aK"/><path fill="#fff" d="M156-122c2-23-7-37-28-37-47 0-58 44-58 89 0 24 12 40 36 40 43 0 47-49 50-92zM-8 75l50-265h48c0 10-3 24-3 30 22-50 127-45 121 29-6 73-21 135-92 135-29 0-46-14-55-35L41 75H-8" id="aL"/><path fill="#fff" d="M6 0l51-261h49L55 0H6" id="aM"/><path fill="#fff" d="M124-194c51 0 84 22 84 74C207-44 167 4 94 4 43 4 11-23 11-74c0-74 41-120 113-120zM99-30c46 0 58-42 58-86 0-27-11-44-37-44-44 0-55 40-57 84-1 27 10 45 36 46" id="aN"/><path fill="#fff" d="M100 10C77 47 50 87-15 72l7-35c37 9 51-18 65-41L20-190h51L89-44l73-146h53" id="aO"/><path fill="#fff" d="M114-194c63-2 87 48 72 110H63c-3 28 1 55 31 54 21-1 32-13 37-29l44 13C160-14 137 4 91 4 41 4 11-22 11-73c0-71 33-119 103-121zm30 77c14-47-50-61-67-22-3 6-6 13-8 22h75" id="aP"/><g id="x"><use transform="matrix(0.04938271604938272,0,0,0.04938271604938272,0,0)" xlink:href="#aJ"/><use transform="matrix(0.04938271604938272,0,0,0.04938271604938272,11.851851851851853,0)" xlink:href="#aK"/><use transform="matrix(0.04938271604938272,0,0,0.04938271604938272,27.654320987654323,0)" xlink:href="#aL"/><use transform="matrix(0.04938271604938272,0,0,0.04938271604938272,38.46913580246914,0)" xlink:href="#aM"/><use transform="matrix(0.04938271604938272,0,0,0.04938271604938272,43.40740740740741,0)" xlink:href="#aN"/><use transform="matrix(0.04938271604938272,0,0,0.04938271604938272,54.22222222222223,0)" xlink:href="#aO"/><use transform="matrix(0.04938271604938272,0,0,0.04938271604938272,64.09876543209877,0)" xlink:href="#aP"/><use transform="matrix(0.04938271604938272,0,0,0.04938271604938272,73.97530864197532,0)" xlink:href="#aP"/></g><path fill="#fff" d="M212 0l43-212L151 0h-37L90-212C82-137 65-70 52 0H6l48-248h70l20 187 93-187h69L258 0h-46" id="aQ"/><path fill="#fff" d="M166-52c-4 17 5 29 24 23l-3 27c-30 11-74 1-67-34C105-15 91 4 56 4 23 4 3-15 2-49c0-64 63-67 128-67 10-22 3-53-29-45-13 3-22 10-25 24l-46-5c5-64 156-77 153 0-1 33-11 60-17 90zM97-88c-44-9-64 57-19 57 31 0 42-28 47-57H97" id="aR"/><path fill="#fff" d="M151-194c95 0 34 128 28 194h-49l25-134c0-29-45-25-59-9C67-111 69-48 56 0H6l36-190h47l-4 32c15-20 33-36 66-36" id="aS"/><path fill="#fff" d="M45-171c29-32 103-29 114 14 2-11 5-23 8-33h47L176-2c-3 70-92 96-155 64C9 56 1 42-1 25l50-5c2 28 48 27 63 11 13-13 20-45 21-66-13 20-30 35-62 36-87 3-60-134-26-172zM94-35c41-3 55-43 55-86 0-24-12-39-35-39-43 0-51 48-51 90 0 22 9 37 31 35" id="aT"/><path fill="#fff" d="M84-151c13-25 34-51 72-40l-8 41C67-170 71-64 56 0H6l36-190h47" id="aU"/><g id="y"><use transform="matrix(0.04938271604938272,0,0,0.04938271604938272,0,0)" xlink:href="#aQ"/><use transform="matrix(0.04938271604938272,0,0,0.04938271604938272,14.765432098765434,0)" xlink:href="#aR"/><use transform="matrix(0.04938271604938272,0,0,0.04938271604938272,24.641975308641978,0)" xlink:href="#aS"/><use transform="matrix(0.04938271604938272,0,0,0.04938271604938272,35.45679012345679,0)" xlink:href="#aR"/><use transform="matrix(0.04938271604938272,0,0,0.04938271604938272,45.333333333333336,0)" xlink:href="#aT"/><use transform="matrix(0.04938271604938272,0,0,0.04938271604938272,56.14814814814815,0)" xlink:href="#aP"/><use transform="matrix(0.04938271604938272,0,0,0.04938271604938272,66.0246913580247,0)" xlink:href="#aU"/></g><path fill="#666" d="M24-231v-30h32v30H24zM-9 49c24 4 33-6 33-30v-209h32V24c2 40-23 58-65 49V49" id="aV"/><path fill="#666" d="M96-169c-40 0-48 33-48 73s9 75 48 75c24 0 41-14 43-38l32 2c-6 37-31 61-74 61-59 0-76-41-82-99-10-93 101-131 147-64 4 7 5 14 7 22l-32 3c-4-21-16-35-41-35" id="aW"/><g id="z"><use transform="matrix(0.04320987654320988,0,0,0.04320987654320988,0,0)" xlink:href="#af"/><use transform="matrix(0.04320987654320988,0,0,0.04320987654320988,5.1419753086419755,0)" xlink:href="#ai"/><use transform="matrix(0.04320987654320988,0,0,0.04320987654320988,13.783950617283953,0)" xlink:href="#aV"/><use transform="matrix(0.04320987654320988,0,0,0.04320987654320988,17.19753086419753,0)" xlink:href="#ai"/><use transform="matrix(0.04320987654320988,0,0,0.04320987654320988,25.839506172839503,0)" xlink:href="#aW"/><use transform="matrix(0.04320987654320988,0,0,0.04320987654320988,33.617283950617285,0)" xlink:href="#ak"/><use transform="matrix(0.04320987654320988,0,0,0.04320987654320988,37.93827160493827,0)" xlink:href="#ai"/><use transform="matrix(0.04320987654320988,0,0,0.04320987654320988,46.58024691358024,0)" xlink:href="#aj"/></g><path fill="#666" d="M240 0l2-218c-23 76-54 145-80 218h-23L58-218 59 0H30v-248h44l77 211c21-75 51-140 76-211h43V0h-30" id="aX"/><g id="A"><use transform="matrix(0.04320987654320988,0,0,0.04320987654320988,0,0)" xlink:href="#aX"/><use transform="matrix(0.04320987654320988,0,0,0.04320987654320988,12.919753086419755,0)" xlink:href="#ad"/><use transform="matrix(0.04320987654320988,0,0,0.04320987654320988,21.56172839506173,0)" xlink:href="#ac"/><use transform="matrix(0.04320987654320988,0,0,0.04320987654320988,30.203703703703713,0)" xlink:href="#ad"/><use transform="matrix(0.04320987654320988,0,0,0.04320987654320988,38.845679012345684,0)" xlink:href="#ap"/><use transform="matrix(0.04320987654320988,0,0,0.04320987654320988,47.48765432098766,0)" xlink:href="#ai"/><use transform="matrix(0.04320987654320988,0,0,0.04320987654320988,56.12962962962963,0)" xlink:href="#af"/></g><g id="B"><use transform="matrix(0.04320987654320988,0,0,0.04320987654320988,0,0)" xlink:href="#aj"/><use transform="matrix(0.04320987654320988,0,0,0.04320987654320988,8.641975308641976,0)" xlink:href="#ai"/><use transform="matrix(0.04320987654320988,0,0,0.04320987654320988,17.283950617283953,0)" xlink:href="#aW"/><use transform="matrix(0.04320987654320988,0,0,0.04320987654320988,25.06172839506173,0)" xlink:href="#al"/><use transform="matrix(0.04320987654320988,0,0,0.04320987654320988,28.47530864197531,0)" xlink:href="#aj"/><use transform="matrix(0.04320987654320988,0,0,0.04320987654320988,37.117283950617285,0)" xlink:href="#ai"/><use transform="matrix(0.04320987654320988,0,0,0.04320987654320988,45.75925925925927,0)" xlink:href="#aq"/></g><g id="C"><use transform="matrix(0.04320987654320988,0,0,0.04320987654320988,0,0)" xlink:href="#ak"/><use transform="matrix(0.04320987654320988,0,0,0.04320987654320988,4.320987654320988,0)" xlink:href="#ag"/></g><g id="D"><use transform="matrix(0.04320987654320988,0,0,0.04320987654320988,0,0)" xlink:href="#ad"/><use transform="matrix(0.04320987654320988,0,0,0.04320987654320988,8.641975308641976,0)" xlink:href="#ae"/><use transform="matrix(0.04320987654320988,0,0,0.04320987654320988,17.283950617283953,0)" xlink:href="#ae"/><use transform="matrix(0.04320987654320988,0,0,0.04320987654320988,25.925925925925927,0)" xlink:href="#af"/><use transform="matrix(0.04320987654320988,0,0,0.04320987654320988,31.067901234567906,0)" xlink:href="#ag"/><use transform="matrix(0.04320987654320988,0,0,0.04320987654320988,39.70987654320988,0)" xlink:href="#ah"/><use transform="matrix(0.04320987654320988,0,0,0.04320987654320988,47.48765432098766,0)" xlink:href="#ai"/></g><g id="E"><use transform="matrix(0.04320987654320988,0,0,0.04320987654320988,0,0)" xlink:href="#ag"/><use transform="matrix(0.04320987654320988,0,0,0.04320987654320988,8.641975308641976,0)" xlink:href="#af"/></g><g id="F"><use transform="matrix(0.04320987654320988,0,0,0.04320987654320988,0,0)" xlink:href="#af"/><use transform="matrix(0.04320987654320988,0,0,0.04320987654320988,5.1419753086419755,0)" xlink:href="#ai"/><use transform="matrix(0.04320987654320988,0,0,0.04320987654320988,13.783950617283953,0)" xlink:href="#aV"/><use transform="matrix(0.04320987654320988,0,0,0.04320987654320988,17.19753086419753,0)" xlink:href="#ai"/><use transform="matrix(0.04320987654320988,0,0,0.04320987654320988,25.839506172839503,0)" xlink:href="#aW"/><use transform="matrix(0.04320987654320988,0,0,0.04320987654320988,33.617283950617285,0)" xlink:href="#ak"/></g><g id="G"><use transform="matrix(0.04320987654320988,0,0,0.04320987654320988,0,0)" xlink:href="#ak"/><use transform="matrix(0.04320987654320988,0,0,0.04320987654320988,4.320987654320988,0)" xlink:href="#ar"/><use transform="matrix(0.04320987654320988,0,0,0.04320987654320988,12.962962962962964,0)" xlink:href="#ai"/></g><path fill="#666" d="M145-31C134-9 116 4 85 4 32 4 16-35 15-94c0-59 17-99 70-100 32-1 48 14 60 33 0-11-1-24 2-32h30l-1 268h-32zM93-21c41 0 51-33 51-76s-8-73-50-73c-40 0-46 35-46 75s5 74 45 74" id="aY"/><path fill="#666" d="M84 4C-5 8 30-112 23-190h32v120c0 31 7 50 39 49 72-2 45-101 50-169h31l1 190h-30c-1-10 1-25-2-33-11 22-28 36-60 37" id="aZ"/><g id="H"><use transform="matrix(0.04320987654320988,0,0,0.04320987654320988,0,0)" xlink:href="#af"/><use transform="matrix(0.04320987654320988,0,0,0.04320987654320988,5.1419753086419755,0)" xlink:href="#ai"/><use transform="matrix(0.04320987654320988,0,0,0.04320987654320988,13.783950617283953,0)" xlink:href="#aY"/><use transform="matrix(0.04320987654320988,0,0,0.04320987654320988,22.425925925925934,0)" xlink:href="#aZ"/><use transform="matrix(0.04320987654320988,0,0,0.04320987654320988,31.067901234567906,0)" xlink:href="#ai"/><use transform="matrix(0.04320987654320988,0,0,0.04320987654320988,39.70987654320988,0)" xlink:href="#aq"/><use transform="matrix(0.04320987654320988,0,0,0.04320987654320988,47.48765432098766,0)" xlink:href="#ak"/></g><g id="I"><use transform="matrix(0.04320987654320988,0,0,0.04320987654320988,0,0)" xlink:href="#an"/><use transform="matrix(0.04320987654320988,0,0,0.04320987654320988,4.320987654320988,0)" xlink:href="#ag"/><use transform="matrix(0.04320987654320988,0,0,0.04320987654320988,12.962962962962964,0)" xlink:href="#af"/></g><g id="J"><use transform="matrix(0.04320987654320988,0,0,0.04320987654320988,0,0)" xlink:href="#af"/><use transform="matrix(0.04320987654320988,0,0,0.04320987654320988,5.1419753086419755,0)" xlink:href="#ai"/><use transform="matrix(0.04320987654320988,0,0,0.04320987654320988,13.783950617283953,0)" xlink:href="#aY"/><use transform="matrix(0.04320987654320988,0,0,0.04320987654320988,22.425925925925934,0)" xlink:href="#aZ"/><use transform="matrix(0.04320987654320988,0,0,0.04320987654320988,31.067901234567906,0)" xlink:href="#ai"/><use transform="matrix(0.04320987654320988,0,0,0.04320987654320988,39.70987654320988,0)" xlink:href="#aq"/><use transform="matrix(0.04320987654320988,0,0,0.04320987654320988,47.48765432098766,0)" xlink:href="#ak"/></g><g id="K"><use transform="matrix(0.04320987654320988,0,0,0.04320987654320988,0,0)" xlink:href="#am"/><use transform="matrix(0.04320987654320988,0,0,0.04320987654320988,12.919753086419755,0)" xlink:href="#ad"/><use transform="matrix(0.04320987654320988,0,0,0.04320987654320988,21.56172839506173,0)" xlink:href="#ac"/><use transform="matrix(0.04320987654320988,0,0,0.04320987654320988,30.203703703703713,0)" xlink:href="#ad"/><use transform="matrix(0.04320987654320988,0,0,0.04320987654320988,38.845679012345684,0)" xlink:href="#ap"/><use transform="matrix(0.04320987654320988,0,0,0.04320987654320988,47.48765432098766,0)" xlink:href="#ai"/><use transform="matrix(0.04320987654320988,0,0,0.04320987654320988,56.12962962962963,0)" xlink:href="#af"/></g><path fill="#666" d="M137-103V0h-34v-103L8-248h37l75 118 75-118h37" id="ba"/><g id="L"><use transform="matrix(0.04320987654320988,0,0,0.04320987654320988,0,0)" xlink:href="#ba"/><use transform="matrix(0.04320987654320988,0,0,0.04320987654320988,8.944444444444446,0)" xlink:href="#ai"/><use transform="matrix(0.04320987654320988,0,0,0.04320987654320988,17.586419753086425,0)" xlink:href="#aq"/></g><path fill="#666" d="M190 0L58-211 59 0H30v-248h39L202-35l-2-213h31V0h-41" id="bb"/><g id="M"><use transform="matrix(0.04320987654320988,0,0,0.04320987654320988,0,0)" xlink:href="#bb"/><use transform="matrix(0.04320987654320988,0,0,0.04320987654320988,11.19135802469136,0)" xlink:href="#ag"/></g></defs></g></svg>